<?xml version="1.0" encoding="UTF-8"?><svg id="Layer_1" xmlns="http://www.w3.org/2000/svg" width="1200" height="1200" viewBox="0 0 1200 1200"><defs><style>.cls-1{fill:#000;stroke-width:0px;}</style></defs><path class="cls-1" d="M1173.1582,147.983c-17.2172-44.7885-68.9272-68.9272-115.4327-49.937-44.7885,17.2172-68.9272,68.9272-49.937,115.4327,17.2172,44.7885,68.9272,67.2115,115.4327,49.937,44.7312-18.9903,67.1541-70.6442,49.937-115.4327Z"/><path class="cls-1" d="M1004.2691,502.8695l13.7857-156.7836c1.716-8.6374,3.4321-18.9341,1.716-29.2871v-5.1482h-1.716c-1.716-10.3535-3.4321-18.9341-6.8642-29.2871-36.1513-93.0097-172.2936-41.357-172.2936-41.357-53.4258,17.2172-161.9455,49.937-217.0785,70.6442-32.7186,12.0695-56.8585,27.5714-72.3599,48.2212l-184.3624-125.7881,29.2871-43.0728-20.6498-13.7857-27.5714,44.8459-55.1427-37.9244c-5.1482-3.4321-13.7857-1.716-17.2172,3.4321-3.4315,5.148-1.716,13.7857,3.4321,17.2172l55.1427,37.9244-27.5714,41.357,20.6498,13.7857,27.5714-41.357,186.0707,127.4966c-5.1482,17.2171-5.1482,36.1513,0,58.5743l74.0756,199.8113c-106.7954,31.0029-225.6571,62.0057-277.3611,74.0756-106.7954-75.7914-217.0785-155.0753-308.381-222.2281l-20.6498,27.5714c39.6401,36.1513,751.1167,539.2367,820.039,575.3941,110.2843,58.5742,177.4311-8.6374,177.4311-8.6374-5.1482-29.2871-80.9972,15.5014-160.2127-24.1387-27.5714-13.7283-187.7914-123.9577-377.3034-256.6039,55.1427-13.7857,168.8524-41.357,223.9488-58.5742,51.71-17.2172,72.3599-55.1427,62.0057-98.2143l-51.71-160.2127,239.5563,163.6539v1.716c24.1387,79.2241,117.1484,58.5742,98.2143-24.1387-6.9214-17.2172-34.4929-129.1561-34.4929-129.1561l.0115-.0254ZM726.9081,483.8792l172.2936-53.4258c0,12.0695-1.716,24.1387-1.716,37.9244,0,31.0029,0,48.2212,1.716,56.8585,5.1482,24.1387,17.2172,63.7226,27.5714,94.7255l-199.865-136.0825Z"/></svg>