<?xml version="1.0" encoding="UTF-8"?>
<svg id="Layer_1" data-name="Layer 1" xmlns="http://www.w3.org/2000/svg" version="1.1" viewBox="0 0 328.3 489.3">
  <defs>
    <style>
      .cls-1 {
        font-family: BradleyHandITCTT-Bold, 'Bradley Hand';
        font-size: 90px;
        font-weight: 700;
      }

      .cls-1, .cls-2, .cls-3 {
        fill: #000;
      }

      .cls-4 {
        stroke-width: 2px;
      }

      .cls-4, .cls-5 {
        fill: none;
        stroke: #000;
        stroke-miterlimit: 10;
      }

      .cls-2 {
        stroke-width: 0px;
      }

      .cls-3 {
        font-family: MyriadPro-Regular, 'Myriad Pro';
        font-size: 41px;
      }
    </style>
  </defs>
  <g>
    <polygon class="cls-2" points="321.3 480.3 321.2 486.3 321.2 486.7 320.8 486.7 314.8 486.8 314.8 485.8 320.8 485.9 320.4 486.3 320.3 480.3 321.3 480.3"/>
    <polygon class="cls-2" points="302.7 487.1 290.6 487.4 290.6 485.3 302.7 485.5 302.7 487.1"/>
    <polygon class="cls-2" points="278.5 487.6 266.4 487.8 266.4 484.8 278.5 485 278.5 487.6"/>
    <polygon class="cls-2" points="254.3 488 242.2 488.2 242.2 484.5 254.3 484.6 254.3 488"/>
    <polygon class="cls-2" points="230.1 488.3 218 488.5 218 484.1 230.1 484.3 230.1 488.3"/>
    <polygon class="cls-2" points="205.9 488.6 193.8 488.8 193.8 483.8 205.9 484 205.9 488.6"/>
    <polygon class="cls-2" points="181.7 488.9 169.6 489 169.6 483.6 181.7 483.7 181.7 488.9"/>
    <polygon class="cls-2" points="157.5 489.1 145.4 489.2 145.4 483.4 157.5 483.5 157.5 489.1"/>
    <polygon class="cls-2" points="133.3 489.3 121.2 489.4 121.2 483.2 133.3 483.3 133.3 489.3"/>
    <polygon class="cls-2" points="109.1 489.5 97 489.6 97 483.1 109.1 483.1 109.1 489.5"/>
    <polygon class="cls-2" points="84.8 489.6 72.7 489.7 72.7 482.9 84.8 483 84.8 489.6"/>
    <polygon class="cls-2" points="60.6 489.7 48.5 489.8 48.5 482.8 60.6 482.9 60.6 489.7"/>
    <polygon class="cls-2" points="36.4 489.8 24.3 489.8 24.3 482.8 36.4 482.8 36.4 489.8"/>
    <polygon class="cls-2" points="12.2 489.9 6.2 489.9 2.7 489.9 2.6 486.3 2.6 480.3 9.8 480.3 9.8 486.3 6.2 482.7 12.2 482.7 12.2 489.9"/>
    <polygon class="cls-2" points="2.7 468.2 2.7 456.2 9.8 456.2 9.8 468.2 2.7 468.2"/>
    <polygon class="cls-2" points="2.7 444.1 2.7 432 9.7 432 9.8 444.1 2.7 444.1"/>
    <polygon class="cls-2" points="2.8 420 2.9 407.9 9.6 407.9 9.7 420 2.8 420"/>
    <polygon class="cls-2" points="2.9 395.8 3.1 383.8 9.4 383.8 9.5 395.8 2.9 395.8"/>
    <polygon class="cls-2" points="3.2 371.7 3.3 359.6 9.2 359.6 9.3 371.7 3.2 371.7"/>
    <polygon class="cls-2" points="3.5 347.5 3.6 335.5 8.9 335.5 9 347.5 3.5 347.5"/>
    <polygon class="cls-2" points="3.8 323.4 3.9 311.3 8.6 311.3 8.7 323.4 3.8 323.4"/>
    <polygon class="cls-2" points="4 299.3 4.2 287.2 8.3 287.2 8.4 299.3 4 299.3"/>
    <polygon class="cls-2" points="4.3 275.1 4.5 263.1 8 263.1 8.1 275.1 4.3 275.1"/>
    <polygon class="cls-2" points="4.6 251 4.7 238.9 7.8 238.9 7.9 251 4.6 251"/>
    <polygon class="cls-2" points="4.8 226.9 4.9 214.8 7.6 214.8 7.7 226.9 4.8 226.9"/>
    <polygon class="cls-2" points="4.9 202.7 5 190.6 7.5 190.6 7.5 202.7 4.9 202.7"/>
    <polygon class="cls-2" points="5 178.6 5 166.5 7.4 166.5 7.5 178.6 5 178.6"/>
    <polygon class="cls-2" points="5 154.4 5 142.4 7.5 142.4 7.4 154.4 5 154.4"/>
    <polygon class="cls-2" points="5 130.3 5 118.2 7.5 118.2 7.5 130.3 5 130.3"/>
    <polygon class="cls-2" points="4.9 106.2 4.8 94.1 7.6 94.1 7.6 106.2 4.9 106.2"/>
    <polygon class="cls-2" points="4.8 82 4.7 70 7.8 70 7.7 82 4.8 82"/>
    <polygon class="cls-2" points="4.6 57.9 4.4 45.8 8 45.8 7.9 57.9 4.6 57.9"/>
    <polygon class="cls-2" points="4.3 33.7 4.2 21.7 8.3 21.7 8.1 33.7 4.3 33.7"/>
    <polygon class="cls-2" points="4.1 9.6 4 3.6 4 1.4 6.2 1.4 12.2 1.3 12.2 5.9 6.2 5.8 8.4 3.6 8.4 9.6 4.1 9.6"/>
    <polygon class="cls-2" points="24.3 1.2 36.4 1.1 36.4 6.1 24.3 6 24.3 1.2"/>
    <polygon class="cls-2" points="48.5 1 60.6 .8 60.6 6.4 48.5 6.3 48.5 1"/>
    <polygon class="cls-2" points="72.7 .7 84.8 .6 84.8 6.6 72.7 6.5 72.7 .7"/>
    <polygon class="cls-2" points="97 .5 109.1 .4 109.1 6.8 97 6.7 97 .5"/>
    <polygon class="cls-2" points="121.2 .3 133.3 .2 133.3 7 121.2 6.9 121.2 .3"/>
    <polygon class="cls-2" points="145.4 .1 157.5 0 157.5 7.2 145.4 7.1 145.4 .1"/>
    <polygon class="cls-2" points="169.6 0 181.7 0 181.7 7.3 169.6 7.2 169.6 0"/>
    <polygon class="cls-2" points="193.8 -.1 205.9 -.2 205.9 7.4 193.8 7.3 193.8 -.1"/>
    <polygon class="cls-2" points="218 -.2 230.1 -.3 230.1 7.5 218 7.4 218 -.2"/>
    <polygon class="cls-2" points="242.2 -.3 254.3 -.4 254.3 7.6 242.2 7.5 242.2 -.3"/>
    <polygon class="cls-2" points="266.4 -.4 278.5 -.5 278.5 7.7 266.4 7.6 266.4 -.4"/>
    <polygon class="cls-2" points="290.6 -.5 302.7 -.6 302.7 7.8 290.6 7.7 290.6 -.5"/>
    <polygon class="cls-2" points="314.8 -.6 320.8 -.6 325 -.6 325 3.6 325 9.6 316.5 9.6 316.6 3.6 320.8 7.8 314.8 7.8 314.8 -.6"/>
    <polygon class="cls-2" points="325.1 21.7 325.1 33.7 316.5 33.7 316.5 21.7 325.1 21.7"/>
    <polygon class="cls-2" points="325.1 45.8 325.1 57.9 316.5 57.9 316.5 45.8 325.1 45.8"/>
    <polygon class="cls-2" points="325.1 70 325.1 82 316.5 82 316.5 70 325.1 70"/>
    <polygon class="cls-2" points="325 94.1 325 106.2 316.6 106.2 316.6 94.1 325 94.1"/>
    <polygon class="cls-2" points="325 118.2 324.9 130.3 316.7 130.3 316.6 118.2 325 118.2"/>
    <polygon class="cls-2" points="324.9 142.4 324.8 154.4 316.8 154.4 316.7 142.4 324.9 142.4"/>
    <polygon class="cls-2" points="324.8 166.5 324.7 178.6 316.9 178.6 316.8 166.5 324.8 166.5"/>
    <polygon class="cls-2" points="324.7 190.6 324.6 202.7 317 202.7 316.9 190.6 324.7 190.6"/>
    <polygon class="cls-2" points="324.5 214.8 324.4 226.9 317.2 226.9 317.1 214.8 324.5 214.8"/>
    <polygon class="cls-2" points="324.4 238.9 324.3 251 317.3 251 317.2 238.9 324.4 238.9"/>
    <polygon class="cls-2" points="324.2 263.1 324 275.1 317.5 275.1 317.4 263.1 324.2 263.1"/>
    <polygon class="cls-2" points="323.9 287.2 323.8 299.3 317.8 299.3 317.7 287.2 323.9 287.2"/>
    <polygon class="cls-2" points="323.7 311.3 323.6 323.4 318 323.4 317.9 311.3 323.7 311.3"/>
    <polygon class="cls-2" points="323.5 335.5 323.3 347.5 318.3 347.5 318.1 335.5 323.5 335.5"/>
    <polygon class="cls-2" points="323.2 359.6 323 371.7 318.6 371.7 318.4 359.6 323.2 359.6"/>
    <polygon class="cls-2" points="322.9 383.8 322.7 395.8 318.9 395.8 318.7 383.8 322.9 383.8"/>
    <polygon class="cls-2" points="322.6 407.9 322.4 420 319.2 420 319 407.9 322.6 407.9"/>
    <polygon class="cls-2" points="322.2 432 322 444.1 319.6 444.1 319.4 432 322.2 432"/>
    <polygon class="cls-2" points="321.8 456.2 321.6 468.2 320 468.2 319.8 456.2 321.8 456.2"/>
  </g>
  <g>
    <path class="cls-2" d="M255.1,116.1c-1.3,0-2.7.2-3.9.4l-3.7-13.1c.3-.4.6-.9.7-1.5.2-1.7-1-3.3-2.7-3.6l-9.4-1.3-6.1-8.3c-.3-1.3-1-2.6-2.1-3.6-2.7-2.2-6.7-1.8-8.9.9l-9.9,12.1c-.9,1.1-1.4,2.5-1.4,3.8-.4,1.7.2,3.6,1.7,4.6l6.1,4.4-5,7.3c-2.6-1.5-5.7-2.4-8.9-2.4-9.9,0-18,8.1-18,18s8.1,18,18,18,17-7.1,17.9-16.1h4.3c.7,1.5,2.2,2.5,4,2.5s4.4-2,4.4-4.4v-4.9l14-16.8,1.5,5.4c-6.1,2.8-10.4,9.1-10.4,16.3s8,17.9,17.9,17.9c9.9,0,17.9-8,17.9-17.9s-8-17.9-17.9-17.9h0ZM201.5,148.3c-7.9,0-14.3-6.4-14.3-14.3s6.4-14.3,14.3-14.3,4.8.6,6.8,1.7l-7.8,11.5c-.4.6-.4,1.3-.1,2,.3.6,1,1,1.7,1h13.6c-.9,7-6.9,12.4-14.1,12.4h0ZM205.6,132.2l5.7-8.4c2.3,2.2,3.8,5.1,4.3,8.4h-10ZM223.3,132.2h-3.8c-.5-4.6-2.7-8.6-6-11.6l5-7.3,4.8,3.5v15.4ZM232.1,123.2v-8.7c0-1.2-.5-2.4-1.4-3.2l12-.7-10.6,12.7ZM225.9,107.8l-5.3-3.8,6.7-8.2,4.4,6c.5.7,1.3,1.1,2.1,1.3l10,1.4.6,2.1-18.5,1.2ZM255.1,148.2c-7.8,0-14.1-6.3-14.1-14.1s3.1-10.2,7.7-12.6l3.6,12.7c.2.8,1,1.4,1.8,1.4s.3,0,.5,0c1-.3,1.6-1.3,1.3-2.3l-3.7-12.9c.9-.2,1.9-.3,2.9-.3,7.8,0,14.1,6.3,14.1,14.1s-6.3,14.1-14.1,14.1h0Z"/>
    <path class="cls-2" d="M241.7,77.7c0,4.2-3.4,7.7-7.7,7.7s-7.7-3.4-7.7-7.7,3.4-7.7,7.7-7.7,7.7,3.4,7.7,7.7"/>
  </g>
  <g>
    <path class="cls-2" d="M205.8,206.9c-.5,1.7-2.3,2.6-4,2.1l-5-1.6c-1.7-.5-2.6-2.3-2.1-4l4.8-15.2c.5-1.7,2.3-2.6,4-2.1l5,1.6c1.7.5,2.6,2.3,2.1,4l-4.8,15.2Z"/>
    <path class="cls-2" d="M228.6,186c3.1-2,3.9-6.2,1.9-9.3-2-3.1-6.2-4-9.3-2-3.1,2-3.9,6.2-1.9,9.3,2,3.1,6.2,4,9.3,2"/>
    <path class="cls-2" d="M238.2,236.9c.4-.6.6-1.3.6-2.1v-17.6c0,0,0-.2,0-.3,0,0,0-.1,0-.2,0,0,0,0,0-.1-.2-2-1.9-3.6-3.9-3.9h-1.4c0-.1,2.2-6,2.2-6,1.9-.1,3.4-1.7,3.4-3.6s-1.6-3.6-3.6-3.6h-8.5c1.2-4,1.4-8.8-3.2-10.9-4.2-1.8-9.4.5-11.8,8.3l-15.7,48.7c-.7,2.1.3,4.4,2.3,5.3l-24.4,8.7h108.2v-38.6l-44.2,15.7ZM232.7,238.9l-10.5,3.8,7.8-20.5h0s0,12.6,0,12.6c0,1.9,1.1,3.5,2.7,4.1h0ZM223.9,206.8h9.3l-2.1,5.6-9.4-.9,2.1-4.6ZM204.5,248.9l11.7-25.4,11.1-1.1-8.1,21.3-14.8,5.3s0,0,0,0h0Z"/>
  </g>
  <g>
    <path class="cls-2" d="M268.9,318.8c-1.2-2.2-3.9-3.1-6.2-1.8l-6.3,3.4-3.6-4.3c-2.6-3.1-5.9-5.4-9.7-6.6l-3.1-1.1c-4.3-1.4-8.9-1.4-13.1,0l-8,2.8c-1.2.4-2.1,1.2-2.7,2.5l-4.4,10.3c-1.1,2.3,0,5,2.3,6s5,0,6-2.3l3.8-8.5,5.8-1.9c-1.9,5.8-4.7,14.9-4.6,17.5h0c0,1.1-.2,2-.5,2.8l-2.8,9.6c-.4,1.2-1.5,2-2.8,2h-12c-2.6,0-4.9,1.7-5.4,4.2-.9,3.6,1.9,6.7,5.3,6.7h18.2c2.3,0,4.4-1.5,5.2-3.8l3.7-8.6c.2-.4.7-.6,1.1-.4l6.2,4.3c1,.6,1.7,1.7,1.9,2.8l3.5,14.9c.7,2.3,2.8,4.1,5.3,4.1s.9,0,1.2,0c2.8-.7,4.7-3.6,3.9-6.5l-4.4-18.6c-.4-1.2-1-2.1-1.8-2.8l-9.6-9.4c1.6-3.6,3.3-8.5,4.9-13.3l5.2,6.4c.9,1.1,2.2,1.7,3.6,1.7s1.5-.2,2.1-.5l9.6-5.2c2.4-1.2,3.3-4,2-6.3h0Z"/>
    <path class="cls-2" d="M257,294.5c1.2,5.2-2,10.4-7.2,11.6-5.2,1.2-10.4-2-11.6-7.2-1.2-5.2,2-10.4,7.2-11.6s10.4,2,11.6,7.2"/>
    <path class="cls-2" d="M190.5,316.9h18.4c.7,0,1.3-.6,1.3-1.3s-.6-1.3-1.3-1.3h-18.4c-.7,0-1.3.6-1.3,1.3s.6,1.3,1.3,1.3h0Z"/>
    <path class="cls-2" d="M203.1,342h14.2c.7,0,1.3-.6,1.3-1.3s-.6-1.3-1.3-1.3h-14.2c-.7,0-1.3.6-1.3,1.3s.6,1.3,1.3,1.3Z"/>
    <path class="cls-2" d="M198.3,339.4h-5.3c-.7,0-1.3.6-1.3,1.3s.6,1.3,1.3,1.3h5.3c.7,0,1.3-.6,1.3-1.3s-.6-1.3-1.3-1.3Z"/>
    <path class="cls-2" d="M207.1,328.7c0-.7-.6-1.3-1.3-1.3h-11.3c-.7,0-1.3.6-1.3,1.3s.6,1.3,1.3,1.3h11.3c.7,0,1.3-.6,1.3-1.3Z"/>
    <path class="cls-2" d="M189.9,327.4h-1.5c-.7,0-1.3.6-1.3,1.3s.6,1.3,1.3,1.3h1.5c.7,0,1.3-.6,1.3-1.3s-.6-1.3-1.3-1.3Z"/>
  </g>
  <g>
    <path class="cls-2" d="M274.6,398.5c-1.4-3.6-5.5-5.5-9.2-4-3.6,1.4-5.5,5.5-4,9.2,1.4,3.6,5.5,5.4,9.2,4,3.6-1.5,5.4-5.6,4-9.2Z"/>
    <path class="cls-2" d="M261.1,426.8l1.1-12.5c.1-.7.3-1.5.1-2.3v-.4h-.1c-.1-.8-.3-1.5-.5-2.3-2.9-7.4-13.7-3.3-13.7-3.3-4.3,1.4-12.9,4-17.3,5.6-2.6,1-4.5,2.2-5.8,3.8l-14.7-10,2.3-3.4-1.6-1.1-2.2,3.6-4.4-3c-.4-.3-1.1-.1-1.4.3s-.1,1.1.3,1.4l4.4,3-2.2,3.3,1.6,1.1,2.2-3.3,14.8,10.2c-.4,1.4-.4,2.9,0,4.7l5.9,15.9c-8.5,2.5-18,4.9-22.1,5.9-8.5-6-17.3-12.4-24.6-17.7l-1.6,2.2c3.2,2.9,59.9,43,65.4,45.9,8.8,4.7,14.2-.7,14.2-.7-.4-2.3-6.5,1.2-12.8-1.9-2.2-1.1-15-9.9-30.1-20.5,4.4-1.1,13.5-3.3,17.9-4.7,4.1-1.4,5.8-4.4,4.9-7.8l-4.1-12.8,19.1,13.1h0c1.9,6.5,9.3,4.8,7.8-1.8-.6-1.4-2.8-10.3-2.8-10.3h0ZM238.9,425.3l13.7-4.3c0,1-.1,1.9-.1,3,0,2.5,0,3.8.1,4.5.4,1.9,1.4,5.1,2.2,7.6l-15.9-10.9Z"/>
  </g>
  <rect class="cls-4" x="43.2" y="78.3" width="67.1" height="61.3"/>
  <text class="cls-3" transform="translate(38.4 41.7)"><tspan x="0" y="0">Rank</tspan></text>
  <text class="cls-3" transform="translate(166.5 41)"><tspan x="0" y="0">Activity</tspan></text>
  <line class="cls-5" x1="147.4" y1="46.8" x2="147.4" y2="466.9"/>
  <line class="cls-5" x1="22.1" y1="164.3" x2="301.6" y2="164.3"/>
  <rect class="cls-4" x="43.2" y="184.9" width="67.1" height="61.3"/>
  <line class="cls-5" x1="22.1" y1="273" x2="301.6" y2="273"/>
  <rect class="cls-4" x="43.2" y="291.5" width="67.1" height="61.3"/>
  <line class="cls-5" x1="22.1" y1="381.8" x2="301.6" y2="381.8"/>
  <rect class="cls-4" x="43.2" y="398.2" width="67.1" height="61.3"/>
  <text class="cls-1" transform="translate(58.2 451.1)"><tspan x="0" y="0">1</tspan></text>
  <text class="cls-1" transform="translate(53.6 127.9)"><tspan x="0" y="0">2</tspan></text>
  <text class="cls-1" transform="translate(53.5 233.4)"><tspan x="0" y="0">3</tspan></text>
  <text class="cls-1" transform="translate(46.1 344.1)"><tspan x="0" y="0">4</tspan></text>
</svg>