<?xml version="1.0" encoding="UTF-8"?>
<svg width="1200pt" height="1200pt" version="1.1" viewBox="0 0 1200 1200" xmlns="http://www.w3.org/2000/svg">
 <path d="m923.88 660.95c-16.246 0-32.016 1.957-47.242 5.3633l-44.723-157.89c4.0781-5.125 6.9258-11.352 7.9219-18.301 2.9531-20.797-11.508-40.043-32.293-43.008l-113.47-16.129-73.297-99.793c-3.5039-16.234-11.988-31.5-25.848-42.828-32.52-26.594-80.41-21.805-107.02 10.703l-119.79 146.41c-11.137 13.609-16.453 29.914-16.859 46.234-5.0273 20.473 2.3633 42.84 20.52 55.906l73.055 52.598-60.047 88.105c-31.715-18.121-68.316-28.621-107.39-28.621-119.88-0.007812-217.41 97.516-217.41 217.38s97.523 217.39 217.39 217.39c112.16 0 204.72-85.391 216.17-194.57h51.539c8.5664 17.941 26.711 30.422 47.914 30.422 29.398 0 53.242-23.832 53.242-53.242v-59.23l168.56-202.29 18.551 65.508c-74.039 34.332-125.63 109.16-125.63 196.01 0 119.17 96.949 216.12 216.12 216.12 119.18-0.003906 216.14-96.965 216.14-216.12 0-119.17-96.961-216.13-216.12-216.13zm-646.49 387.89c-94.703 0-171.76-77.051-171.76-171.76 0-94.703 77.051-171.76 171.76-171.76 29.543 0 57.371 7.5 81.684 20.699l-94.199 138.2c-4.7656 6.9844-5.2695 16.031-1.3203 23.52 3.9492 7.4766 11.711 12.156 20.172 12.156h163.73c-11.219 83.922-83.109 148.94-170.06 148.94zm49.5-194.58 68.988-101.22c27.539 26.316 46.285 61.633 51.574 101.22zm212.89 0h-46.227c-5.7852-55.199-32.449-104.16-71.773-139.23l60.086-88.152 57.91 41.699zm106.48-107.7v-105.25c0-14.809-6.4336-28.57-17.09-38.566l144.41-8.9648zm-74.27-185.99-63.887-45.996 80.617-98.531 53.52 72.852c6.0469 8.2422 15.168 13.691 25.285 15.133l120.56 17.137 7.2344 25.535zm351.89 487c-94.008 0-170.48-76.488-170.48-170.5 0-65.941 37.691-123.13 92.605-151.49l43.234 152.63c2.8438 10.043 12 16.609 21.938 16.609 2.0508 0 4.1523-0.27734 6.2266-0.86328 12.133-3.4453 19.164-16.055 15.742-28.176l-44.074-155.61c11.242-2.3398 22.883-3.6016 34.812-3.6016 94.008 0 170.5 76.488 170.5 170.5 0 94.008-76.5 170.5-170.5 170.5z"/>
 <path d="m762.56 198.21c0 51.184-41.492 92.676-92.676 92.676-51.184 0-92.676-41.492-92.676-92.676s41.492-92.676 92.676-92.676c51.184 0 92.676 41.492 92.676 92.676"/>
</svg>
