<?xml version="1.0" encoding="UTF-8"?>
<svg width="1200pt" height="1200pt" version="1.1" viewBox="0 0 1200 1200" xmlns="http://www.w3.org/2000/svg">
 <path d="m355.44 497.43c-5.7461 18.145-25.152 28.199-43.273 22.414l-54.781-17.398c-18.145-5.7461-28.164-25.176-22.379-43.309l52.523-164.86c5.7344-18.156 25.129-28.164 43.273-22.414l54.77 17.398c18.121 5.7969 28.141 25.152 22.379 43.297z"/>
 <path d="m602.59 269.86c33.406-21.961 42.695-67.344 20.496-101.17-22.262-33.898-67.5-43.43-100.98-21.434-33.527 21.984-42.73 67.176-20.484 101.07 22.164 33.832 67.414 43.492 100.97 21.531"/>
 <path d="m707.33 823.3c3.8867-6.7578 6.3594-14.387 6.4336-22.668l0.71875-191c0.023437-0.98438-0.20312-1.8945-0.25391-2.8438-0.046874-0.79297 0.097657-1.5586 0-2.3516-0.046874-0.42188-0.22656-0.73047-0.30078-1.1289-2.7109-21.961-20.148-39.648-42.719-41.914l-14.809-1.4922 24.145-63.574c20.328-1.4648 36.422-18.254 36.422-38.953 0-21.672-17.566-39.238-39.238-39.238h-92.41c13.129-43.066 15.648-95.785-34.895-117.93-45.574-20.004-102 5.1133-128.7 90.121l-170.09 528.89c-7.4023 23.09 3.6484 47.449 24.852 57.73l-265.18 94.559h1175.9v-419.28zm-60.145 21.457-114.46 40.801 84.77-223.22 0.46875-0.046875-0.30078 137.43c-0.19141 20.477 11.855 37.938 29.52 45.043zm-95.438-348.13h101.57l-23.039 60.672-101.79-10.199zm-210.48 456.74 127.28-276.2 120.76-12-87.961 231.59-160.39 57.191c0.10547-0.19531 0.21484-0.33594 0.3125-0.57812z"/>
</svg>
