<?xml version="1.0" encoding="UTF-8"?>
<svg id="Layer_1" data-name="Layer 1" xmlns="http://www.w3.org/2000/svg" version="1.1" viewBox="0 0 900 900">
  <defs>
    <style>
      .cls-1 {
        fill: #000;
        stroke-width: 0px;
      }
    </style>
  </defs>
  <path class="cls-1" d="M838,339.8c-11-21.2-37.3-29.7-59.3-16.9l-60.2,32.2-33.9-40.7c-24.6-29.7-55.9-51.7-92.3-62.7l-29.7-10.2c-40.7-13.6-84.7-13.6-125.4.9l-76.3,26.3c-11,4.2-20.3,11.8-25.4,23.7l-42.4,98.3c-10.2,22,0,47.5,22,57.6s47.5,0,57.6-22l36.4-81.4,55.1-18.6c-18.6,55.1-44.9,142.4-44.1,166.9v.9c0,9.3-1.7,18.6-5.1,26.3l-26.3,91.5c-3.4,11-14.4,19.5-26.3,19.5h-114.4c-24.6,0-46.6,16.1-51.7,39.8-8.5,33.9,18.6,64.4,50.8,64.4h173.7c22,0,42.4-14.4,49.2-36.4l35.6-82.2c1.7-4.2,6.8-5.9,10.2-3.4l59.3,40.7c9.3,5.9,16.1,16.1,18.6,27.1l33.1,142.3c6.8,22,27.1,39,50.8,39s8.5,0,11.8-.9c27.1-6.8,44.9-34.8,37.3-61.9l-42.4-177.9c-3.4-11-9.3-20.3-16.9-27.1l-91.5-89.8c15.3-33.9,31.3-81.4,46.6-127.1l50,61c8.5,10.2,21.2,16.1,33.9,16.1s14.4-1.7,20.3-5.1l91.6-49.9c22.9-11.8,31.3-38.1,19.5-60.2h0Z"/>
  <path class="cls-1" d="M724.5,108.5c11.7,49.6-19,99.4-68.7,111.1-49.6,11.7-99.4-19-111.1-68.6-11.7-49.6,19-99.4,68.7-111.1s99.4,19,111.1,68.6"/>
  <path class="cls-1" d="M89.7,322.1h175.4c6.8,0,12.7-5.9,12.7-12.7s-5.9-12.7-12.7-12.7H89.7c-6.8,0-12.7,5.9-12.7,12.7s5.9,12.7,12.7,12.7h0Z"/>
  <path class="cls-1" d="M210.1,561.9h135.6c6.8,0,12.7-5.9,12.7-12.7s-5.9-12.7-12.7-12.7h-135.6c-6.8,0-12.7,5.9-12.7,12.7s5.9,12.7,12.7,12.7Z"/>
  <path class="cls-1" d="M163.5,536.5h-50.8c-6.8,0-12.7,5.9-12.7,12.7s5.9,12.7,12.7,12.7h50.8c6.8,0,12.7-5.9,12.7-12.7s-5.9-12.7-12.7-12.7Z"/>
  <path class="cls-1" d="M248.2,434.8c0-6.8-5.9-12.7-12.7-12.7h-107.6c-6.8,0-12.7,5.9-12.7,12.7s5.9,12.7,12.7,12.7h107.6c6.8,0,12.7-6,12.7-12.7Z"/>
  <path class="cls-1" d="M83.8,422.1h-14.4c-6.8,0-12.7,5.9-12.7,12.7s5.9,12.7,12.7,12.7h14.4c6.8,0,12.7-5.9,12.7-12.7s-5.9-12.7-12.7-12.7Z"/>
</svg>