<?xml version="1.0" encoding="UTF-8"?>
<svg id="Layer_2" xmlns="http://www.w3.org/2000/svg" xmlns:xlink="http://www.w3.org/1999/xlink" version="1.1" viewBox="0 0 835.1 370">
  <!-- Generator: Adobe Illustrator 29.2.1, SVG Export Plug-In . SVG Version: 2.1.0 Build 116)  -->
  <defs>
    <style>
      .st0, .st1, .st2 {
        fill: none;
      }

      .st3 {
        font-size: 12px;
      }

      .st3, .st4, .st5 {
        isolation: isolate;
      }

      .st3, .st5 {
        fill: #fff;
        font-family: Arial-BoldMT, Arial;
        font-weight: 700;
      }

      .st5 {
        font-size: 12px;
      }

      .st1 {
        stroke-linecap: square;
      }

      .st1, .st2 {
        stroke: #eeedee;
      }

      .st6 {
        clip-path: url(#clippath);
      }
    </style>
    <clipPath id="clippath">
      <rect class="st0" x="34.4" y="7.5" width="788.8" height="322.6"/>
    </clipPath>
  </defs>
  <g id="Axes">
    <g>
      <rect class="st0" x="35.5" width="799.5" height="329"/>
      <rect class="st0" x="35.5" width="799.5" height="329"/>
      <g>
        <rect class="st0" x="35.5" y="8.5" width="786.5" height="320.5"/>
        <g class="st6">
          <g>
            <line class="st2" x1="35.5" y1="329" x2="746.7" y2="329"/>
            <line class="st2" x1="35.5" y1="275.5" x2="746.7" y2="275.5"/>
            <line class="st2" x1="35.5" y1="222.1" x2="746.7" y2="222.1"/>
            <line class="st2" x1="35.5" y1="168.7" x2="746.7" y2="168.7"/>
            <line class="st2" x1="35.5" y1="115.3" x2="746.7" y2="115.3"/>
            <line class="st2" x1="35.5" y1="61.9" x2="746.7" y2="61.9"/>
            <line class="st2" x1="35.5" y1="8.5" x2="746.7" y2="8.5"/>
          </g>
        </g>
        <g>
          <line class="st1" x1="35.5" y1="329" x2="746.7" y2="329"/>
          <g>
            <g>
              <line class="st2" x1="743.4" y1="329" x2="743.4" y2="336.3"/>
              <g class="st4">
                <g class="st4">
                  <text class="st3" transform="translate(728.5 367.5) rotate(-42.8) skewX(4.3)"><tspan x="0" y="0">2020</tspan></text>
                </g>
              </g>
            </g>
            <g>
              <line class="st2" x1="664.8" y1="329" x2="664.8" y2="336.3"/>
              <g class="st4">
                <g class="st4">
                  <text class="st3" transform="translate(649.9 367.5) rotate(-42.8) skewX(4.3)"><tspan x="0" y="0">2015</tspan></text>
                </g>
              </g>
            </g>
            <g>
              <line class="st2" x1="586.1" y1="329" x2="586.1" y2="336.3"/>
              <g class="st4">
                <g class="st4">
                  <text class="st3" transform="translate(571.2 367.5) rotate(-42.8) skewX(4.3)"><tspan x="0" y="0">2010</tspan></text>
                </g>
              </g>
            </g>
            <g>
              <line class="st2" x1="507.5" y1="329" x2="507.5" y2="336.3"/>
              <g class="st4">
                <g class="st4">
                  <text class="st3" transform="translate(492.6 367.5) rotate(-42.8) skewX(4.3)"><tspan x="0" y="0">2005</tspan></text>
                </g>
              </g>
            </g>
            <g>
              <line class="st2" x1="428.8" y1="329" x2="428.8" y2="336.3"/>
              <g class="st4">
                <g class="st4">
                  <text class="st3" transform="translate(413.9 367.5) rotate(-42.8) skewX(4.3)"><tspan x="0" y="0">2000</tspan></text>
                </g>
              </g>
            </g>
            <g>
              <line class="st2" x1="350.1" y1="329" x2="350.1" y2="336.3"/>
              <g class="st4">
                <g class="st4">
                  <text class="st3" transform="translate(335.3 367.5) rotate(-42.8) skewX(4.3)"><tspan x="0" y="0">1995</tspan></text>
                </g>
              </g>
            </g>
            <g>
              <line class="st2" x1="271.5" y1="329" x2="271.5" y2="336.3"/>
              <g class="st4">
                <g class="st4">
                  <text class="st3" transform="translate(256.6 367.5) rotate(-42.8) skewX(4.3)"><tspan x="0" y="0">1990</tspan></text>
                </g>
              </g>
            </g>
            <g>
              <line class="st2" x1="192.9" y1="329" x2="192.9" y2="336.3"/>
              <g class="st4">
                <g class="st4">
                  <text class="st3" transform="translate(178 367.5) rotate(-42.8) skewX(4.3)"><tspan x="0" y="0">1985</tspan></text>
                </g>
              </g>
            </g>
            <g>
              <line class="st2" x1="114.2" y1="329" x2="114.2" y2="336.3"/>
              <g class="st4">
                <g class="st4">
                  <text class="st3" transform="translate(99.3 367.5) rotate(-42.8) skewX(4.3)"><tspan x="0" y="0">1980</tspan></text>
                </g>
              </g>
            </g>
            <g>
              <line class="st2" x1="35.5" y1="329" x2="35.5" y2="336.3"/>
              <g class="st4">
                <g class="st4">
                  <text class="st3" transform="translate(20.6 367.5) rotate(-42.8) skewX(4.3)"><tspan x="0" y="0">1975</tspan></text>
                </g>
              </g>
            </g>
          </g>
        </g>
        <g>
          <line class="st1" x1="35.5" y1="329" x2="35.5" y2="8.5"/>
          <g>
            <g>
              <line class="st2" x1="35.5" y1="329" x2="27.6" y2="329"/>
              <g class="st4">
                <g class="st4">
                  <text class="st5" transform="translate(15.8 333.8)"><tspan x="0" y="0">0</tspan></text>
                </g>
              </g>
            </g>
            <g>
              <line class="st2" x1="35.5" y1="61.9" x2="27.6" y2="61.9"/>
              <g class="st4">
                <g class="st4">
                  <text class="st5" transform="translate(0 66.8)"><tspan x="0" y="0">100</tspan></text>
                </g>
              </g>
            </g>
            <g>
              <line class="st2" x1="35.5" y1="115.3" x2="27.6" y2="115.3"/>
              <g class="st4">
                <g class="st4">
                  <text class="st5" transform="translate(7.9 120.2)"><tspan x="0" y="0">80</tspan></text>
                </g>
              </g>
            </g>
            <g>
              <line class="st2" x1="35.5" y1="168.7" x2="27.6" y2="168.7"/>
              <g class="st4">
                <g class="st4">
                  <text class="st5" transform="translate(7.9 173.6)"><tspan x="0" y="0">60</tspan></text>
                </g>
              </g>
            </g>
            <g>
              <line class="st2" x1="35.5" y1="222.1" x2="27.6" y2="222.1"/>
              <g class="st4">
                <g class="st4">
                  <text class="st5" transform="translate(7.9 227)"><tspan x="0" y="0">40</tspan></text>
                </g>
              </g>
            </g>
            <g>
              <line class="st2" x1="35.5" y1="275.5" x2="27.6" y2="275.5"/>
              <g class="st4">
                <g class="st4">
                  <text class="st5" transform="translate(7.9 280.4)"><tspan x="0" y="0">20</tspan></text>
                </g>
              </g>
            </g>
            <g>
              <line class="st2" x1="35.5" y1="8.5" x2="27.6" y2="8.5"/>
              <g class="st4">
                <g class="st4">
                  <text class="st5" transform="translate(0 13.3)"><tspan x="0" y="0">120</tspan></text>
                </g>
              </g>
            </g>
          </g>
        </g>
      </g>
    </g>
  </g>
</svg>