<?xml version="1.0" encoding="UTF-8"?>
<svg id="Layer_2" data-name="Layer 2" xmlns="http://www.w3.org/2000/svg" xmlns:xlink="http://www.w3.org/1999/xlink" viewBox="0 0 405.39 260.1">
  <defs>
    <style>
      .cls-1 {
        fill: url(#linear-gradient-8);
      }

      .cls-2 {
        fill: url(#linear-gradient-7);
      }

      .cls-3 {
        fill: url(#linear-gradient-5);
      }

      .cls-4 {
        fill: url(#linear-gradient-6);
      }

      .cls-5 {
        fill: url(#linear-gradient-9);
      }

      .cls-6 {
        fill: url(#linear-gradient-4);
      }

      .cls-7 {
        fill: url(#linear-gradient-3);
      }

      .cls-8 {
        fill: url(#linear-gradient-2);
      }

      .cls-9 {
        fill: url(#linear-gradient);
      }

      .cls-10 {
        fill: url(#linear-gradient-10);
      }
    </style>
    <linearGradient id="linear-gradient" x1="337.13" y1="155.24" x2="405.39" y2="155.24" gradientUnits="userSpaceOnUse">
      <stop offset="0" stop-color="#7f2673"/>
      <stop offset=".14" stop-color="#812975"/>
      <stop offset=".27" stop-color="#88367d"/>
      <stop offset=".41" stop-color="#944a8a"/>
      <stop offset=".54" stop-color="#a4669c"/>
      <stop offset=".68" stop-color="#ba8ab3"/>
      <stop offset=".82" stop-color="#d4b6d0"/>
      <stop offset=".95" stop-color="#f2eaf1"/>
      <stop offset="1" stop-color="#fff"/>
    </linearGradient>
    <linearGradient id="linear-gradient-2" x1="274.55" y1="153.82" x2="367.85" y2="153.82" xlink:href="#linear-gradient"/>
    <linearGradient id="linear-gradient-3" x1="224.65" y1="146.61" x2="327.58" y2="146.61" xlink:href="#linear-gradient"/>
    <linearGradient id="linear-gradient-4" x1="244.72" y1="110.44" x2="294.98" y2="110.44" xlink:href="#linear-gradient"/>
    <linearGradient id="linear-gradient-5" x1="185.91" y1="162.88" x2="260.12" y2="162.88" xlink:href="#linear-gradient"/>
    <linearGradient id="linear-gradient-6" x1="200.12" y1="80.13" x2="224.31" y2="80.13" xlink:href="#linear-gradient"/>
    <linearGradient id="linear-gradient-7" x1="118.6" y1="163.68" x2="214.82" y2="163.68" xlink:href="#linear-gradient"/>
    <linearGradient id="linear-gradient-8" x1="0" y1="169.98" x2="169.85" y2="169.98" xlink:href="#linear-gradient"/>
    <linearGradient id="linear-gradient-9" x1="327.58" y1="183.75" x2="328.5" y2="183.75" xlink:href="#linear-gradient"/>
    <linearGradient id="linear-gradient-10" x1="247.25" y1="222.64" x2="248.1" y2="222.64" xlink:href="#linear-gradient"/>
  </defs>
  <g id="MtBaker_Contours">
    <path class="cls-9" d="M405.39,260.1h-67.64c-4.21-23.71,14.05-20.25,25.03-56.27,13.15-43.12-2.74-50.54-9.15-89.35-3.75-22.71.84-47.47,5.3-64.1,3.73,15.07,20.88,86.42,21.45,127.34.65,45.92,25,82.38,25,82.38Z"/>
    <path class="cls-8" d="M362.79,203.83c-10.99,36.02-29.24,32.56-25.03,56.27h-63.2c8.54-6.59,21.86-16.2,34.73-22.77,12.1-6.17,16.63-26.2,18.29-42.37l12.58-72.9.73-4.24,17.34-70.28s.25,1,.71,2.84c-4.46,16.63-9.05,41.39-5.3,64.1,6.41,38.81,22.3,46.23,9.15,89.35Z"/>
    <path class="cls-7" d="M327.58,194.96c-1.66,16.17-6.19,36.2-18.29,42.37-12.87,6.57-26.19,16.18-34.73,22.77h-49.9c7.42-9.85,18.72-25.96,21.25-35.58,3.83-14.6,34.18-41.88,37.26-69.28,3.08-27.4-16.02-54.25-11.14-74.19,2.71-11.09,13.72-27.14,22.96-39.19l.32.87,15.72-9.61,15.72,166.63.83-4.79Z"/>
    <path class="cls-6" d="M283.16,155.24c-2.84,25.26-28.87,50.43-35.91,65.64-2.06-11.05-3.26-21.09-2.04-25.92,3.48-13.89,17.06-31.68,14.63-51.26-1.43-11.46-7.62-24.59-11.73-37.68l15.72-83.85,15.72-22.17,15.44,41.86c-9.25,12.05-20.25,28.1-22.96,39.19-4.88,19.94,14.22,46.79,11.14,74.19Z"/>
    <path class="cls-3" d="M247.25,220.88c-.59,1.29-1.05,2.5-1.35,3.64-2.52,9.62-13.83,25.73-21.25,35.58h-38.74c2.05-20.14,19.5-25.66,27.07-58.62,8.02-34.87-13.39-56.72-2.78-94.35,4.27-15.14,10.18-31.27,14.11-41.47l8.07,1.37,15.72,38.99c2.05,6.54,4.63,13.1,6.87,19.45,2.24,6.35,4.15,12.5,4.86,18.23,2.44,19.58-11.14,37.37-14.63,51.26-1.21,4.83-.02,14.87,2.04,25.92Z"/>
    <path class="cls-4" d="M224.31,65.66c-2.95,7.69-7.05,18.76-10.71,30.23-3.71-11.58-9.39-21.99-13.47-28.64l.77-.49,15.72-2.4,7.69,1.3Z"/>
    <path class="cls-2" d="M212.98,201.48c-7.57,32.96-25.02,38.48-27.07,58.62h-67.31c1.83-6.14,4.42-13.66,8.03-21.95,9.57-21.95,27.9-17.55,36.76-29.9,4.94-6.89,6.26-25.81,6.46-41.2l15.33-90.41,14.94-9.39c4.08,6.65,9.76,17.06,13.47,28.64-1.19,3.74-2.35,7.52-3.39,11.24-10.61,37.63,10.8,59.48,2.78,94.35Z"/>
    <path class="cls-1" d="M169.85,167.05c-.2,15.39-1.52,34.31-6.46,41.2-8.86,12.35-27.2,7.95-36.76,29.9-3.61,8.29-6.2,15.81-8.03,21.95H0s43.19-28.12,75.88-53.4c32.7-25.28,14.39-41.23,17.61-59.08,3.21-17.85,44.49-52.28,44.49-52.28l15.71-15.49,15.77,89.52.39-2.32Z"/>
    <path class="cls-5" d="M328.44,172.54s.41,10.09-.86,22.42l.86-22.42Z"/>
    <path class="cls-10" d="M248.1,224.41l-.85-3.53.85,3.53Z"/>
  </g>
</svg>