<?xml version="1.0" encoding="UTF-8"?>
<svg id="Layer_2" data-name="Layer 2" xmlns="http://www.w3.org/2000/svg" xmlns:xlink="http://www.w3.org/1999/xlink" viewBox="0 0 665.4 134.06">
  <defs>
    <style>
      .cls-1 {
        fill: none;
      }

      .cls-2 {
        fill: url(#linear-gradient-8);
      }

      .cls-3 {
        fill: url(#linear-gradient-7);
      }

      .cls-4 {
        fill: url(#linear-gradient-5);
      }

      .cls-5 {
        fill: url(#linear-gradient-6);
      }

      .cls-6 {
        fill: url(#linear-gradient-9);
      }

      .cls-7 {
        fill: url(#linear-gradient-4);
      }

      .cls-8 {
        fill: url(#linear-gradient-3);
      }

      .cls-9 {
        fill: url(#linear-gradient-2);
      }

      .cls-10 {
        fill: url(#linear-gradient);
      }

      .cls-11 {
        fill: url(#linear-gradient-10);
      }

      .cls-12 {
        fill: url(#linear-gradient-11);
      }

      .cls-13 {
        fill: url(#linear-gradient-12);
      }

      .cls-14 {
        fill: url(#linear-gradient-13);
      }

      .cls-15 {
        fill: url(#linear-gradient-19);
      }

      .cls-16 {
        fill: url(#linear-gradient-14);
      }

      .cls-17 {
        fill: url(#linear-gradient-21);
      }

      .cls-18 {
        fill: url(#linear-gradient-20);
      }

      .cls-19 {
        fill: url(#linear-gradient-22);
      }

      .cls-20 {
        fill: url(#linear-gradient-23);
      }

      .cls-21 {
        fill: url(#linear-gradient-28);
      }

      .cls-22 {
        fill: url(#linear-gradient-25);
      }

      .cls-23 {
        fill: url(#linear-gradient-32);
      }

      .cls-24 {
        fill: url(#linear-gradient-31);
      }

      .cls-25 {
        fill: url(#linear-gradient-33);
      }

      .cls-26 {
        fill: url(#linear-gradient-30);
      }

      .cls-27 {
        fill: url(#linear-gradient-16);
      }

      .cls-28 {
        fill: url(#linear-gradient-17);
      }

      .cls-29 {
        fill: url(#linear-gradient-18);
      }

      .cls-30 {
        fill: url(#linear-gradient-35);
      }

      .cls-31 {
        fill: url(#linear-gradient-34);
      }

      .cls-32 {
        fill: url(#linear-gradient-36);
      }

      .cls-33 {
        fill: url(#linear-gradient-27);
      }

      .cls-34 {
        fill: url(#linear-gradient-24);
      }

      .cls-35 {
        fill: url(#linear-gradient-26);
      }

      .cls-36 {
        fill: url(#linear-gradient-29);
      }

      .cls-37 {
        fill: url(#linear-gradient-15);
        stroke: #231f20;
        stroke-miterlimit: 10;
      }

      .cls-38 {
        clip-path: url(#clippath);
      }
    </style>
    <linearGradient id="linear-gradient" x1="612.01" y1="94.44" x2="665.4" y2="94.44" gradientUnits="userSpaceOnUse">
      <stop offset="0" stop-color="#ca982c"/>
      <stop offset="1" stop-color="#fff"/>
    </linearGradient>
    <linearGradient id="linear-gradient-2" x1="607.64" y1="70.33" x2="624.53" y2="70.33" xlink:href="#linear-gradient"/>
    <linearGradient id="linear-gradient-3" x1="587.92" y1="96.26" x2="614.53" y2="96.26" xlink:href="#linear-gradient"/>
    <linearGradient id="linear-gradient-4" x1="563.97" y1="99.08" x2="594.59" y2="99.08" xlink:href="#linear-gradient"/>
    <linearGradient id="linear-gradient-5" x1="541.53" y1="98.67" x2="584.15" y2="98.67" xlink:href="#linear-gradient"/>
    <linearGradient id="linear-gradient-6" x1="548.06" y1="93.34" x2="567.82" y2="87.79" xlink:href="#linear-gradient"/>
    <linearGradient id="linear-gradient-7" x1="504.15" y1="87.52" x2="549.44" y2="75.29" xlink:href="#linear-gradient"/>
    <linearGradient id="linear-gradient-8" x1="493.43" y1="78.96" x2="530.31" y2="78.96" xlink:href="#linear-gradient"/>
    <linearGradient id="linear-gradient-9" x1="492.15" y1="75.4" x2="513.58" y2="75.4" xlink:href="#linear-gradient"/>
    <linearGradient id="linear-gradient-10" x1="466.95" y1="89.32" x2="501.86" y2="84.65" xlink:href="#linear-gradient"/>
    <linearGradient id="linear-gradient-11" x1="441.86" y1="87.17" x2="484.2" y2="87.17" xlink:href="#linear-gradient"/>
    <linearGradient id="linear-gradient-12" x1="413.06" y1="68.76" x2="466.34" y2="68.76" xlink:href="#linear-gradient"/>
    <linearGradient id="linear-gradient-13" x1="387.62" y1="69.61" x2="437.11" y2="69.61" xlink:href="#linear-gradient"/>
    <linearGradient id="linear-gradient-14" x1="387.62" y1="69.61" x2="437.11" y2="69.61" xlink:href="#linear-gradient"/>
    <clipPath id="clippath">
      <path class="cls-16" d="M434.91,43.7c-6.51,27.67-5.62,31.99-3.77,48.96,1.06,9.6,3.28,17.15-2.09,26.77-3.07,5.49-10.04,10.81-15.99,14.63h-22.59c5.56-8.64,12.43-22.83,4.36-30.94-5.03-5.05-6.83-9-7.22-11.9l.09.11,15.72-25.1,15.71-6.15,15.3-54.91c2.28,8.03,4.44,21.63.47,38.53Z"/>
    </clipPath>
    <linearGradient id="linear-gradient-15" x1="366.11" y1="101.98" x2="378.74" y2="101.98" xlink:href="#linear-gradient"/>
    <linearGradient id="linear-gradient-16" x1="367.31" y1="103.02" x2="398.53" y2="103.02" xlink:href="#linear-gradient"/>
    <linearGradient id="linear-gradient-17" x1="310.07" y1="79.96" x2="375.96" y2="79.96" xlink:href="#linear-gradient"/>
    <linearGradient id="linear-gradient-18" x1="287.23" y1="79.58" x2="337.77" y2="79.58" xlink:href="#linear-gradient"/>
    <linearGradient id="linear-gradient-19" x1="261.96" y1="72.9" x2="301.33" y2="72.9" xlink:href="#linear-gradient"/>
    <linearGradient id="linear-gradient-20" x1="244.26" y1="73.11" x2="278.51" y2="73.11" xlink:href="#linear-gradient"/>
    <linearGradient id="linear-gradient-21" x1="211.39" y1="69.32" x2="261.85" y2="69.32" xlink:href="#linear-gradient"/>
    <linearGradient id="linear-gradient-22" x1="210.61" y1="61.93" x2="250.09" y2="61.93" xlink:href="#linear-gradient"/>
    <linearGradient id="linear-gradient-23" x1="184.07" y1="104.15" x2="240.22" y2="87.58" xlink:href="#linear-gradient"/>
    <linearGradient id="linear-gradient-24" x1="196.35" y1="81.74" x2="214.36" y2="81.74" xlink:href="#linear-gradient"/>
    <linearGradient id="linear-gradient-25" x1="154.97" y1="95.06" x2="199.9" y2="95.06" xlink:href="#linear-gradient"/>
    <linearGradient id="linear-gradient-26" x1="137.04" y1="100.38" x2="185.01" y2="91.7" xlink:href="#linear-gradient"/>
    <linearGradient id="linear-gradient-27" x1="112.99" y1="81.91" x2="168.84" y2="81.91" xlink:href="#linear-gradient"/>
    <linearGradient id="linear-gradient-28" x1="95.13" y1="81.58" x2="136.82" y2="81.58" xlink:href="#linear-gradient"/>
    <linearGradient id="linear-gradient-29" x1="102.3" y1="46.58" x2="121.32" y2="46.58" xlink:href="#linear-gradient"/>
    <linearGradient id="linear-gradient-30" x1="69.8" y1="67.03" x2="106.79" y2="67.03" xlink:href="#linear-gradient"/>
    <linearGradient id="linear-gradient-31" x1="46.86" y1="67.41" x2="90.85" y2="67.41" xlink:href="#linear-gradient"/>
    <linearGradient id="linear-gradient-32" x1="22.96" y1="80.33" x2="57.05" y2="80.33" xlink:href="#linear-gradient"/>
    <linearGradient id="linear-gradient-33" x1="0" y1="79.04" x2="43.69" y2="79.04" xlink:href="#linear-gradient"/>
    <linearGradient id="linear-gradient-34" x1="591.91" y1="81.68" x2="598.44" y2="81.68" xlink:href="#linear-gradient"/>
    <linearGradient id="linear-gradient-35" x1="356.63" y1="81.95" x2="372.51" y2="81.95" xlink:href="#linear-gradient"/>
    <linearGradient id="linear-gradient-36" x1="106.79" y1="69.76" x2="110.46" y2="69.76" xlink:href="#linear-gradient"/>
  </defs>
  <g id="Powderhorn_Contours">
    <path class="cls-10" d="M612.34,134.06c3.72-10.22,2.01-21.27-.1-33.69-1.75-10.38,6.61-32.28,12.29-45.55,2.79,7.98,11.5,33.02,14.86,42.65,4.01,11.52,26,36.59,26,36.59h-53.05Z"/>
    <path class="cls-9" d="M624.53,54.82c-3.95,9.25-9.22,22.69-11.45,33.5-1.72-3.62-3.55-9.43-3.78-17.97-.14-5.2-.81-9.05-1.67-11.88l.27-.52,15.76-5.61s.31.91.86,2.48Z"/>
    <path class="cls-8" d="M612.34,134.06h-24.42c5.69-8.61,9.31-18.78,4.27-27.3-3.75-6.31-2.57-13.5-.28-19.35l.28.45,6.25-11.91h0s9.19-17.48,9.19-17.48c.86,2.83,1.54,6.68,1.67,11.88.23,8.54,2.05,14.35,3.78,17.97-.98,4.7-1.37,8.9-.84,12.05,2.1,12.42,3.82,23.47.1,33.69Z"/>
    <path class="cls-7" d="M587.92,134.06h-3.78c-6.92-5.61-20.83-18.22-20.15-28.34.91-13.45,9.24-1.95,8.39-22.69-.32-7.83,1.81-14.12,4.6-18.92l14.92,23.3c-2.29,5.85-3.46,13.04.28,19.35,5.05,8.52,1.43,18.69-4.27,27.3Z"/>
    <path class="cls-4" d="M584.15,134.06h-41.33c-.14-.55-.27-1.13-.41-1.72-4.27-18.18,8.13-21.29,15.37-37.9,3.39-7.79,3.96-12.97,3.61-16.28l15.09-14.87.52.82c-2.79,4.8-4.92,11.09-4.6,18.92.85,20.74-7.48,9.24-8.39,22.69-.68,10.12,13.24,22.73,20.15,28.34Z"/>
    <path class="cls-5" d="M557.77,94.44c-2.49,5.73-5.61,9.85-8.44,13.54-2.75-4.15-6.23-9.94-7.8-14.71-1.58-4.81.8-10.2,3.15-13.97l.3,1.08,15.76-1.6.64-.62c.35,3.31-.22,8.49-3.61,16.28Z"/>
    <path class="cls-3" d="M542.4,132.34c.14.59.27,1.17.41,1.72h-37.95c7.5-7.08,22.84-22.99,23.28-34.98.59-15.88-9.5-11.1-1.28-40.61,4.42-15.85,3.84-27.35,2.36-34.61l.04-.1,15.72,56.62c-2.35,3.77-3.32,9.16-1.74,13.97,1.57,4.77,5.59,6.5,8.34,10.65-5.36,7.01-11.97,15.43-9.18,27.34Z"/>
    <path class="cls-2" d="M528.15,99.08c-.44,11.99-15.78,27.9-23.28,34.98h-9.22c.42-6.51-.85-14.14-2.01-25.35-1.75-16.98,7.35-14.3,15.74-30.55,3.83-7.43,4.5-13.47,4.08-17.82h.08s15.68-36.48,15.68-36.48c1.49,7.26,2.06,18.76-2.36,34.61-8.22,29.51,1.87,24.73,1.28,40.61Z"/>
    <path class="cls-6" d="M509.39,78.16c-3.99,7.73-8.15,11.18-11.22,14.5-2.07-3.98-4.61-9.89-5.74-16.71-1.26-7.51,2.18-13.89,5.14-17.8l.26.33,15.64,1.86c.42,4.35-.24,10.39-4.08,17.82Z"/>
    <path class="cls-11" d="M493.64,108.71c1.15,11.21,2.43,18.84,2.01,25.35h-26.07c-2.6-3.73-5.2-8.81-6.19-15.12-2.27-14.44,9.1-19.7,17.49-40.78,5.53-13.88,3.01-29.1.66-37.87l.53-1.57,15.5,19.43c-2.95,3.91-6.4,10.29-5.14,17.8,1.13,6.82,3.67,12.73,5.74,16.71-3.38,3.65-5.44,7.15-4.52,16.05Z"/>
    <path class="cls-12" d="M480.88,78.16c-8.39,21.08-19.76,26.34-17.49,40.78.99,6.31,3.59,11.39,6.19,15.12h-14.18c-7.05-4.57-13.83-10.19-13.53-14.8.63-9.5,8.32-10.68,18.73-23,4.3-5.08,5.95-9.53,6.38-12.99l14.55-42.98c2.36,8.77,4.87,23.99-.66,37.87Z"/>
    <path class="cls-13" d="M466.34,85.18s-1.43,6-5.73,11.08c-10.42,12.32-18.11,13.5-18.73,23-.3,4.61,6.48,10.23,13.53,14.8h-42.34c5.95-3.82,12.91-9.14,15.99-14.63,5.37-9.62,3.15-17.17,2.09-26.77-1.85-16.97-2.74-21.29,3.77-48.96,3.97-16.9,1.81-30.5-.47-38.53l.47-1.7,15.72,59.02,15.71,22.69Z"/>
    <g>
      <path class="cls-14" d="M434.91,43.7c-6.51,27.67-5.62,31.99-3.77,48.96,1.06,9.6,3.28,17.15-2.09,26.77-3.07,5.49-10.04,10.81-15.99,14.63h-22.59c5.56-8.64,12.43-22.83,4.36-30.94-5.03-5.05-6.83-9-7.22-11.9l.09.11,15.72-25.1,15.71-6.15,15.3-54.91c2.28,8.03,4.44,21.63.47,38.53Z"/>
      <g class="cls-38">
        <path class="cls-37" d="M377.79,66.22s-13.75,8.35-11.41,22.1,18.72,21.98,9.65,49.41"/>
      </g>
    </g>
    <path class="cls-27" d="M390.47,134.06h-14.52c.16-7.34-1.46-17.37-6.45-32.27-4.75-14.21-.89-24.12,3-29.81l15.11,19.24c.39,2.9,2.19,6.85,7.22,11.9,8.07,8.11,1.19,22.3-4.36,30.94Z"/>
    <path class="cls-28" d="M375.95,134.06h-38.18c-.55-6.44-2.68-13.73-8.14-20.45-14.23-17.52-7.83-32.74-8.72-55.14-.51-12.95-6.15-24.85-10.84-32.6l30.43,23,15.72,26.17.41-.1c1.14,5.4,3.34,10.86,7.44,14.57,1.28,1.16,2.42,2.19,3.41,3.1.28,2.83.93,5.89,2.03,9.18,4.99,14.9,6.6,24.93,6.45,32.27Z"/>
    <path class="cls-29" d="M337.77,134.06h-36.44c-8.07-12.42-15.96-35.34-13.72-47.09,1.98-10.41,5.68-23.95,5.68-23.95l15.76-37.92,1.02.77c4.69,7.75,10.33,19.65,10.84,32.6.89,22.4-5.52,37.62,8.72,55.14,5.46,6.72,7.59,14.01,8.14,20.45Z"/>
    <path class="cls-15" d="M261.96,134.06c2.52-6.85,4.1-15.05,2.62-23.7-3.91-22.94,1.83-21.87,10.2-52.21,4.76-17.25,4.11-34.4,2.66-45.99l.13-.41,15.72,51.27c-1.86,7.9-5.34,23-5.12,30.9.33,12.32,5.08,27.72,13.16,40.14h-39.37Z"/>
    <path class="cls-18" d="M274.79,58.15c-8.37,30.34-14.12,29.27-10.2,52.21,1.48,8.65-.1,16.85-2.62,23.7h-1.5c-4.84-5.56-11.12-13.15-14.36-18.68-5.72-9.78,3.03-25.3,10.65-36.99,3.58-5.48,4.94-12.37,5.38-18.14l15.31-48.09c1.45,11.59,2.1,28.74-2.66,45.99Z"/>
    <path class="cls-17" d="M246.1,115.38c3.24,5.53,9.52,13.12,14.36,18.68h-49.07c3.41-7.21,7.56-17.61,8.9-27.93,2.41-18.57,14.27-11.75,25.02-29.93,10.75-18.19.19-15.16-1.05-45.09-.54-13.03.85-21.32,2.59-26.53l15,56.57s-1.52,11.76-5.1,17.24c-7.62,11.69-16.38,27.21-10.65,36.99Z"/>
    <path class="cls-19" d="M245.31,76.2c-10.74,18.18-22.61,11.36-25.02,29.93-.63,4.85-1.89,9.72-3.39,14.27-2.05-3.13-4.17-7.38-5.51-12.82-3.33-13.53,4.49-13.77,13.77-28,2.81-4.29,4.15-8,4.66-11.09l.55.41L246.56,3.47l.29,1.11c-1.74,5.21-3.13,13.5-2.59,26.53,1.23,29.93,11.8,26.9,1.05,45.09Z"/>
    <path class="cls-20" d="M225.17,79.58c-9.28,14.23-17.1,14.47-13.77,28,1.34,5.44,3.45,9.69,5.51,12.82-1.68,5.13-3.7,9.84-5.51,13.66h-39.47c2.73-5.02,7.69-12.59,14.71-17.23,11.21-7.41,16.01-16.37,23.98-36.18,3.65-9.09,4.12-17.06,3.55-23.03l.49-.47,15.72,11.75c-.51,3.09-2.4,6.39-5.2,10.68Z"/>
    <path class="cls-34" d="M210.61,80.65c-4.59,11.42-8.13,19.23-12.45,25.22-3.59-7.49-1.03-12.76.77-19.94,1.12-4.42,1.09-9.97.8-14.33l14.43-13.98c.57,5.97.1,13.94-3.55,23.03Z"/>
    <path class="cls-22" d="M198.93,85.93c-1.8,7.18-4.36,12.45-.77,19.94-3.18,4.4-6.78,7.83-11.52,10.96-7.02,4.64-11.98,12.21-14.71,17.23h-16.94c.74-3.81,2.18-7.65,4.55-11.32,12.77-19.82,11.97-21.98,14.38-42.02,1.33-11.06,6.44-19.41,10.74-24.66l14.77,15.84.31-.3c.28,4.36.31,9.91-.8,14.33Z"/>
    <path class="cls-35" d="M184.65,56.06c-4.3,5.25-9.41,13.6-10.74,24.66-2.41,20.04-1.61,22.2-14.38,42.02-2.37,3.67-3.81,7.51-4.55,11.32h-18.83c1.43-2.39,3.24-5.21,5.52-8.53,12.85-18.68,8.48-16.94,14.16-34.04,5.68-17.11,9.83-11.46,12.43-22.17,1.17-4.79.43-8.62-.74-11.38l16.53-2.53.61.65Z"/>
    <path class="cls-33" d="M168.25,69.32c-2.6,10.71-6.75,5.06-12.43,22.17-5.67,17.1-1.3,15.36-14.16,34.04-2.28,3.32-4.09,6.14-5.52,8.53h-23.15c0-5.31.68-11.84,3.04-18.18,5.35-14.38,14.28-16.43,15.76-32.05,1.48-15.62-5.5-13.58-3.26-32.97,1.25-10.92,5.13-17.47,8.28-21.1l14.91,12.16,15.72,16.03h.06c1.17,2.75,1.92,6.58.74,11.37Z"/>
    <path class="cls-21" d="M131.8,83.83c-1.48,15.62-10.41,17.67-15.76,32.05-2.37,6.34-3.03,12.87-3.04,18.18h-17.86c3.51-6.08,6.71-12.6,7.96-17.95,3.35-14.38-2.46-14.83-4.47-30.12-2.01-15.29,8.71-20.08,18.08-33.31,5.27-7.44,5.12-15,3.96-20.18l15.35-3.39.8.65c-3.15,3.63-7.02,10.18-8.28,21.1-2.24,19.39,4.74,17.35,3.26,32.97Z"/>
    <path class="cls-36" d="M116.7,52.68c-3.35,4.73-6.87,8.37-9.91,11.81-1.36-4.59-2.83-10.48-3.92-17.28-1.52-9.41.25-15.25,2.06-18.54l15.36,3.91.37-.08c1.15,5.18,1.31,12.74-3.96,20.18Z"/>
    <path class="cls-26" d="M98.62,85.99c2.02,15.29,7.82,15.74,4.47,30.12-1.25,5.35-4.45,11.87-7.96,17.95h-9.81c.49-15.58-11.95-14.1-14.93-39-3.71-30.97,11.1-29.95,18.34-57.96,3.58-13.86,2.05-26.8-.41-36.33l.49-.77,15.72,28.57.4.1c-1.81,3.29-3.58,9.13-2.06,18.54,1.1,6.8,2.56,12.69,3.92,17.28-5.49,6.18-9.46,11.67-8.17,21.5Z"/>
    <path class="cls-24" d="M88.73,37.1c-7.24,28.01-22.05,26.99-18.34,57.96,2.97,24.9,15.42,23.42,14.93,39h-37.48c-1.49-8.26-1.91-19.83,3.3-31.04,3.48-7.5,5.17-13.48,5.91-18.06l.32,1.29,15.72-61.68L88.32.77c2.47,9.53,3.99,22.47.41,36.33Z"/>
    <path class="cls-23" d="M51.14,103.02c-5.2,11.21-4.78,22.78-3.3,31.04h-24.63c-2.3-24.43,12.14-27.33,18.4-65.3,2.95-17.93,2.37-31.92.66-42.16l14.78,58.36c-.74,4.58-2.43,10.56-5.91,18.06Z"/>
    <path class="cls-25" d="M41.61,68.76c-6.26,37.97-20.7,40.87-18.4,65.3H0C24.84,120.32,41.61,24.03,41.61,24.03l.66,2.57c1.71,10.24,2.3,24.23-.66,42.16Z"/>
    <path class="cls-31" d="M598.44,75.95l-6.54,11.46c2.48-6.38,6.3-11.16,6.54-11.46Z"/>
    <path class="cls-30" d="M367.48,92.61c-1-.91-2.13-1.94-3.41-3.1-4.1-3.71-6.29-9.17-7.44-14.57l15.35-3.64.53.68c-2.99,4.37-5.97,11.24-5.03,20.63Z"/>
    <path class="cls-1" d="M367.48,92.61l7.62,6.89"/>
    <path class="cls-1" d="M201.15,110.75c-1.29-1.74-2.28-3.36-2.99-4.88"/>
    <path class="cls-1" d="M199.73,71.6c-.28-4.16-.8-7.25-.8-7.25"/>
    <path class="cls-32" d="M106.79,64.49c1.95,6.64,3.67,10.55,3.67,10.55l-3.67-10.55Z"/>
  </g>
</svg>