<?xml version="1.0" encoding="UTF-8"?>
<svg id="Layer_2" data-name="Layer 2" xmlns="http://www.w3.org/2000/svg" xmlns:xlink="http://www.w3.org/1999/xlink" viewBox="0 0 453.96 219.83">
  <defs>
    <style>
      .cls-1 {
        fill: url(#linear-gradient-8);
      }

      .cls-2 {
        fill: url(#linear-gradient-7);
      }

      .cls-3 {
        fill: url(#linear-gradient-5);
      }

      .cls-4 {
        fill: url(#linear-gradient-6);
      }

      .cls-5 {
        fill: url(#linear-gradient-9);
      }

      .cls-6 {
        fill: url(#linear-gradient-4);
      }

      .cls-7 {
        fill: url(#linear-gradient-3);
      }

      .cls-8 {
        fill: url(#linear-gradient-2);
      }

      .cls-9 {
        fill: url(#linear-gradient);
      }

      .cls-10 {
        fill: url(#linear-gradient-10);
      }

      .cls-11 {
        fill: url(#linear-gradient-11);
      }

      .cls-12 {
        fill: url(#linear-gradient-12);
      }

      .cls-13 {
        fill: url(#linear-gradient-13);
      }

      .cls-14 {
        fill: url(#linear-gradient-14);
      }

      .cls-15 {
        fill: url(#linear-gradient-15);
      }

      .cls-16 {
        fill: url(#linear-gradient-16);
      }

      .cls-17 {
        fill: url(#linear-gradient-17);
      }
    </style>
    <linearGradient id="linear-gradient" x1="368.04" y1="143.72" x2="453.96" y2="143.72" gradientUnits="userSpaceOnUse">
      <stop offset="0" stop-color="#3dbca1"/>
      <stop offset="1" stop-color="#fff"/>
    </linearGradient>
    <linearGradient id="linear-gradient-2" x1="365.68" y1="141.94" x2="422.52" y2="141.94" xlink:href="#linear-gradient"/>
    <linearGradient id="linear-gradient-3" x1="320.19" y1="148.31" x2="401.2" y2="140" xlink:href="#linear-gradient"/>
    <linearGradient id="linear-gradient-4" x1="307.76" y1="141.88" x2="355.1" y2="141.88" xlink:href="#linear-gradient"/>
    <linearGradient id="linear-gradient-5" x1="292.67" y1="164.96" x2="331.66" y2="164.96" xlink:href="#linear-gradient"/>
    <linearGradient id="linear-gradient-6" x1="265.44" y1="162.69" x2="313.65" y2="162.69" xlink:href="#linear-gradient"/>
    <linearGradient id="linear-gradient-7" x1="234.11" y1="135.97" x2="282.27" y2="135.97" xlink:href="#linear-gradient"/>
    <linearGradient id="linear-gradient-8" x1="183.91" y1="134.91" x2="254.16" y2="134.91" xlink:href="#linear-gradient"/>
    <linearGradient id="linear-gradient-9" x1="179.78" y1="133.77" x2="221.59" y2="127.46" xlink:href="#linear-gradient"/>
    <linearGradient id="linear-gradient-10" x1="140.19" y1="129.62" x2="189.02" y2="129.62" xlink:href="#linear-gradient"/>
    <linearGradient id="linear-gradient-11" x1="108.96" y1="129.62" x2="175.19" y2="129.62" xlink:href="#linear-gradient"/>
    <linearGradient id="linear-gradient-12" x1="80.99" y1="118.97" x2="155.82" y2="100" xlink:href="#linear-gradient"/>
    <linearGradient id="linear-gradient-13" x1="62.61" y1="109.61" x2="127.07" y2="109.61" xlink:href="#linear-gradient"/>
    <linearGradient id="linear-gradient-14" x1="71.82" y1="80.26" x2="92.86" y2="80.26" xlink:href="#linear-gradient"/>
    <linearGradient id="linear-gradient-15" x1="40.32" y1="132.51" x2="80.59" y2="132.51" xlink:href="#linear-gradient"/>
    <linearGradient id="linear-gradient-16" x1="0" y1="150" x2="60.04" y2="150" xlink:href="#linear-gradient"/>
    <linearGradient id="linear-gradient-17" x1="312.39" y1="131.09" x2="315.1" y2="131.09" xlink:href="#linear-gradient"/>
  </defs>
  <g id="Revelstoke_Contours">
    <path class="cls-9" d="M453.96,219.83h-85.92c2.2-5.07,4.88-10.67,7.28-14.02,5.19-7.29,14.83-17.71,22.22-44.09,7.12-25.4-2.74-36.06,17.55-57.36,8.93-9.37,4.89-30.18,7.44-36.75,3.52,16.88,14.99,72.03,15.72,75.57.89,4.27,15.72,76.64,15.72,76.64Z"/>
    <path class="cls-8" d="M422.52,67.62c-2.55,6.57,1.49,27.37-7.44,36.74-20.29,21.3-9.32,27.47-17.54,57.36-7,25.44-17.02,36.8-22.22,44.09-1.84,2.58-3.85,6.48-5.69,10.45-10.08-16.83,2.31-38.98,2.31-38.98,0,0,12.27-31.69,3.38-46.43-5.27-8.75-2.39-17.26,0-24.24h0l15.72-26.17,15.76-9.08,15.72-3.74Z"/>
    <path class="cls-7" d="M371.93,177.28s-12.39,22.15-2.31,38.98c-.55,1.19-1.08,2.39-1.58,3.57h-70.7c16.38-8.06,44.48-23.86,53.17-40.97,12.52-24.64-6.1-29.32-7.93-45.24-1.83-15.91,13.03-29.99,12.51-41.18-.32-6.99-5.6-16.56-9.51-22.76l.16-.42,14.69,9.77,14.89,27.58c-2.39,6.98-5.27,15.49,0,24.24,8.88,14.74-3.38,46.43-3.38,46.43Z"/>
    <path class="cls-6" d="M342.57,133.62c1.83,15.92,20.46,20.6,7.93,45.24-6.95,13.67-26.28,26.51-42.13,35.22-.22-.34-.42-.68-.63-1.03,6.86-12.46,15.61-30.14,16.12-40.11.85-16.54,8.62-29.64,7.71-42.59-.39-5.55-1.87-10.1-3.41-13.48l17.4-47.19c3.91,6.2,9.19,15.77,9.51,22.76.52,11.19-14.34,25.27-12.51,41.18Z"/>
    <path class="cls-3" d="M323.88,172.94c-.51,9.97-9.26,27.65-16.12,40.11-3.87-6.29-7.92-13.17-11.08-19.21-8.66-16.54-1.84-33.9,6.83-39.31,5.33-3.33,8.49-13.19,10.15-20.29l14.47-17.22.06-.15c1.55,3.38,3.02,7.93,3.41,13.48.91,12.95-6.86,26.05-7.71,42.59Z"/>
    <path class="cls-4" d="M296.67,193.84c3.34,6.37,7.66,13.68,11.71,20.24-3.99,2.2-7.76,4.13-11.05,5.75h-22.1c2.63-8.48,5.19-17.96,6.54-26.26,3.45-21.25-12.57-25.42-16.01-46.89-2.37-14.83,8.35-31.96,15.21-41.13l15.68,3.19,16.97,25.5h0c-1.65,7.1-4.81,16.96-10.15,20.29-8.67,5.41-15.49,22.77-6.83,39.31Z"/>
    <path class="cls-2" d="M281.78,193.57c-1.35,8.3-3.91,17.78-6.54,26.26h-34.95c7.79-30.18-.24-30.51-5.38-59.56-5.57-31.55,19.72-32.43,19.24-73.96-.18-15.91-1.69-26.81-3.48-34.2l30.28,53.43h.04c-6.86,9.18-17.58,26.31-15.21,41.14,3.43,21.47,19.46,25.64,16.01,46.89Z"/>
    <path class="cls-1" d="M234.91,160.27c5.14,29.05,13.17,29.38,5.38,59.56h-51.27c-4.43-11.1-6.69-25.3-3.83-42.47,4.88-29.31,33.01-24.98,36.01-47.01,1.67-12.25-.37-21.81-2.5-27.88l.43-.1,14.64-13.92,15.71-38.46,1.2,2.12c1.79,7.39,3.31,18.29,3.48,34.2.48,41.53-24.81,42.41-19.24,73.96Z"/>
    <path class="cls-5" d="M221.2,130.35c-2.68,19.63-25.3,18.33-33.65,38.55-3.56-11.6-7.92-28.64-7.92-42.45s4.64-24.09,8.43-30.23l.5,1.7,13.72,8.15,16.43-3.6c2.13,6.07,4.18,15.63,2.5,27.88Z"/>
    <path class="cls-10" d="M163.63,191.48c2.83-17.12.34-25.09-1.68-42.22-2.03-17.13,6.36-33.66,11.95-64.45,2.65-14.6-2.48-45.41-2.48-45.41h0l16.63,56.82c-3.8,6.14-8.43,16.46-8.43,30.23s4.36,30.85,7.92,42.45c-1.02,2.47-1.83,5.27-2.36,8.46-2.86,17.17-.6,31.37,3.83,42.47h-48.83c9.39-6.98,21.72-17.93,23.44-28.35Z"/>
    <path class="cls-11" d="M173.89,84.81c-5.59,30.79-13.97,47.32-11.95,64.45,2.03,17.13,4.51,25.1,1.68,42.22-1.72,10.42-14.05,21.37-23.44,28.35h-31.23c2.1-4.94,5.11-10.09,9.18-15.26,11.98-15.26,6.86-19.28,6.31-31.54-.54-12.25,8.04-20.39,21.41-31.15,7.61-6.13,9.48-20.1,9.67-30.98l15.9-71.5c3.41,11.88,5.13,30.81,2.48,45.41Z"/>
    <path class="cls-12" d="M155.52,110.9c-.19,10.88-2.05,24.85-9.67,30.98-13.36,10.76-21.94,18.9-21.41,31.15.55,12.26,5.67,16.28-6.31,31.54-4.07,5.17-7.07,10.32-9.18,15.26h-29.92c1.73-20.09,17.01-29.91,25.61-50.93,10.3-25.19-4.26-33.69-4.64-60.54-.37-26.84,17.07-30.87,24.43-60.3,4.64-18.53,2.2-36.64-.23-47.49h0s.23-.57.23-.57l14.92,42.35,15.74,70.4.41-1.85Z"/>
    <path class="cls-13" d="M124.45,48.06c-7.36,29.43-24.8,33.46-24.43,60.3.38,26.85,14.94,35.35,4.64,60.54-8.42,20.6-23.27,30.44-25.49,49.74-2.53-8.51-2-18.97.62-27.82,4.62-15.62-11.93-25.24-16.24-40.68-4.32-15.44,7-37.42,20.51-51.22,8.73-8.92,9.29-22.74,8.6-31.39l.42.58,14.84-27.73L124.22.57c2.44,10.85,4.87,28.96.23,47.49Z"/>
    <path class="cls-14" d="M84.05,98.92c-3.88,3.97-7.59,8.62-10.79,13.6-4.58-13.07,2.99-33.25,6.08-48.84,1.22-6.13.54-11.42-.86-15.68l14.18,19.53c.69,8.65.13,22.47-8.6,31.39Z"/>
    <path class="cls-15" d="M79.78,190.82c-2.61,8.85-3.15,19.31-.62,27.82-.04.39-.08.79-.12,1.19h-28.81c6.99-21.9.2-16.45-7.22-43.33-7.82-28.34,3-37.99,11.69-56.39,3.83-8.12,5.11-16,5.33-22.28l.82,1.02,15.56-53.66,2.04,2.81c1.4,4.26,2.08,9.55.86,15.68-3.08,15.59-10.65,35.77-6.08,48.84-7.93,12.31-12.8,26.62-9.71,37.62,4.31,15.44,20.86,25.06,16.24,40.68Z"/>
    <path class="cls-16" d="M54.71,120.11c-8.69,18.4-18.99,30.02-11.17,58.36,7.42,26.88,13.7,19.46,6.7,41.36H0c14.63-15.04,13.5-40.32,13.5-40.32l32.31-99.34,14.22,17.66c-.23,6.28-1.51,14.16-5.33,22.28Z"/>
    <path class="cls-17" d="M315.1,126.45s-1.68,4.83-2.71,9.27"/>
  </g>
</svg>