<?xml version="1.0" encoding="UTF-8"?>
<svg id="Layer_2" data-name="Layer 2" xmlns="http://www.w3.org/2000/svg" xmlns:xlink="http://www.w3.org/1999/xlink" viewBox="0 0 488.6 200.56">
  <defs>
    <style>
      .cls-1 {
        fill: url(#linear-gradient-8);
      }

      .cls-2 {
        fill: url(#linear-gradient-7);
      }

      .cls-3 {
        fill: url(#linear-gradient-5);
      }

      .cls-4 {
        fill: url(#linear-gradient-6);
      }

      .cls-5 {
        fill: url(#linear-gradient-9);
      }

      .cls-6 {
        fill: url(#linear-gradient-4);
      }

      .cls-7 {
        fill: url(#linear-gradient-3);
      }

      .cls-8 {
        fill: url(#linear-gradient-2);
      }

      .cls-9 {
        fill: url(#linear-gradient);
      }

      .cls-10 {
        fill: url(#linear-gradient-10);
      }

      .cls-11 {
        fill: url(#linear-gradient-11);
      }

      .cls-12 {
        fill: url(#linear-gradient-12);
      }

      .cls-13 {
        fill: url(#linear-gradient-13);
      }

      .cls-14 {
        fill: url(#linear-gradient-19);
      }

      .cls-15 {
        fill: url(#linear-gradient-14);
      }

      .cls-16 {
        fill: url(#linear-gradient-21);
      }

      .cls-17 {
        fill: url(#linear-gradient-20);
      }

      .cls-18 {
        fill: url(#linear-gradient-22);
      }

      .cls-19 {
        fill: url(#linear-gradient-15);
      }

      .cls-20 {
        fill: url(#linear-gradient-16);
      }

      .cls-21 {
        fill: url(#linear-gradient-17);
      }

      .cls-22 {
        fill: url(#linear-gradient-18);
      }

      .cls-23 {
        fill: url(#linear-gradient-23);
        stroke: #3dbca1;
        stroke-miterlimit: 10;
      }
    </style>
    <linearGradient id="linear-gradient" x1="431.01" y1="121.55" x2="488.6" y2="121.55" gradientUnits="userSpaceOnUse">
      <stop offset="0" stop-color="#7f692a"/>
      <stop offset=".14" stop-color="#816b2d"/>
      <stop offset=".27" stop-color="#88743a"/>
      <stop offset=".41" stop-color="#94824e"/>
      <stop offset=".55" stop-color="#a5966a"/>
      <stop offset=".69" stop-color="#bbaf8e"/>
      <stop offset=".83" stop-color="#d6cfba"/>
      <stop offset=".96" stop-color="#f5f3ee"/>
      <stop offset="1" stop-color="#fff"/>
    </linearGradient>
    <linearGradient id="linear-gradient-2" x1="392.95" y1="121.38" x2="456.49" y2="121.38" xlink:href="#linear-gradient"/>
    <linearGradient id="linear-gradient-3" x1="390.2" y1="148.48" x2="412.92" y2="148.48" xlink:href="#linear-gradient"/>
    <linearGradient id="linear-gradient-4" x1="365.72" y1="153.82" x2="398.8" y2="153.82" xlink:href="#linear-gradient"/>
    <linearGradient id="linear-gradient-5" x1="318.18" y1="101.86" x2="392.95" y2="101.86" xlink:href="#linear-gradient"/>
    <linearGradient id="linear-gradient-6" x1="333.69" y1="75.29" x2="356.73" y2="75.29" xlink:href="#linear-gradient"/>
    <linearGradient id="linear-gradient-7" x1="294.87" y1="123.5" x2="341.61" y2="123.5" xlink:href="#linear-gradient"/>
    <linearGradient id="linear-gradient-8" x1="258.39" y1="123.38" x2="315.03" y2="123.38" xlink:href="#linear-gradient"/>
    <linearGradient id="linear-gradient-9" x1="229.72" y1="101.1" x2="287.85" y2="101.1" xlink:href="#linear-gradient"/>
    <linearGradient id="linear-gradient-10" x1="176.97" y1="100.95" x2="265.84" y2="100.95" xlink:href="#linear-gradient"/>
    <linearGradient id="linear-gradient-11" x1="205.29" y1="92.01" x2="224.01" y2="92.01" xlink:href="#linear-gradient"/>
    <linearGradient id="linear-gradient-12" x1="174.83" y1="118.62" x2="213.05" y2="118.62" xlink:href="#linear-gradient"/>
    <linearGradient id="linear-gradient-13" x1="173.43" y1="114.61" x2="194.56" y2="114.61" xlink:href="#linear-gradient"/>
    <linearGradient id="linear-gradient-14" x1="126.74" y1="133.13" x2="182.01" y2="133.13" xlink:href="#linear-gradient"/>
    <linearGradient id="linear-gradient-15" x1="142.49" y1="88.46" x2="161.2" y2="88.46" xlink:href="#linear-gradient"/>
    <linearGradient id="linear-gradient-16" x1="91.38" y1="123.35" x2="151.31" y2="123.35" xlink:href="#linear-gradient"/>
    <linearGradient id="linear-gradient-17" x1="94.17" y1="115.56" x2="130.34" y2="115.56" xlink:href="#linear-gradient"/>
    <linearGradient id="linear-gradient-18" x1="97.56" y1="76.84" x2="122.1" y2="76.84" xlink:href="#linear-gradient"/>
    <linearGradient id="linear-gradient-19" x1="51.72" y1="121.91" x2="103.38" y2="121.91" xlink:href="#linear-gradient"/>
    <linearGradient id="linear-gradient-20" x1="64.71" y1="95.71" x2="84.57" y2="95.71" xlink:href="#linear-gradient"/>
    <linearGradient id="linear-gradient-21" x1="24.29" y1="111.23" x2="68.46" y2="111.23" xlink:href="#linear-gradient"/>
    <linearGradient id="linear-gradient-22" x1="0" y1="147.15" x2="53.3" y2="147.15" xlink:href="#linear-gradient"/>
    <linearGradient id="linear-gradient-23" x1="177.63" y1="170.75" x2="177.63" y2="170.75" xlink:href="#linear-gradient"/>
  </defs>
  <g id="Snowbird_Contours">
    <path class="cls-9" d="M488.6,200.56h-57.59c.77-5.94,2.16-12.47,4.66-17.94,6.44-14.11,30.71-28.39,16.37-50.63-8.7-13.5.66-23.42-7.6-44.25-4.99-12.59-2.6-31.9.07-45.2,1.13,3.89,11.6,40.61,15.62,77.9,4.26,39.44,28.48,80.12,28.48,80.12Z"/>
    <path class="cls-8" d="M435.67,182.62c-2.49,5.47-3.88,12-4.66,17.94h-38.06c2.26-9.22,6.63-23.65,13.22-31.26,5.29-6.12,5.76-14.34,6.75-26.43l31.48-100.67s.03.12.1.34c-2.67,13.3-5.06,32.61-.07,45.2,8.26,20.83-1.1,30.75,7.6,44.25,14.34,22.24-9.93,36.52-16.37,50.63Z"/>
    <path class="cls-7" d="M412.92,142.87c-.99,12.09-1.46,20.31-6.75,26.43-2.88,3.33-5.33,7.96-7.38,12.9,0,0-14.49-49.23-5.84-60.65,1.85-2.45,3.43-4.72,4.77-6.79l15.19,28.11Z"/>
    <path class="cls-6" d="M398.8,182.2c-2.63,6.34-4.57,13.17-5.84,18.36,0,0-7.1-13.02-17.5-40.25-5.78-15.13-9.02-33.57-9.73-47.35l15.76-5.87,15.72,6.68.53.99c-1.34,2.07-2.93,4.34-4.77,6.79-8.65,11.42,5.84,60.65,5.84,60.65Z"/>
    <path class="cls-3" d="M392.95,200.56h-74.77c5.57-19.84,17.45-41.14,23.12-49.51,16.01-23.62,19.56-19.26,10.66-75.96-4.88-31.18-3.82-55.44-1.53-71.92l15.28,109.79h0c.71,13.78,3.95,32.22,9.73,47.35,10.4,27.23,17.5,40.25,17.5,40.25Z"/>
    <path class="cls-4" d="M341.61,150.59c-4.74-7.19-9.63-18.45-7.34-32.49,1.71-10.51,1.51-20.91.68-29.44L350,0l.44,3.17c-2.29,16.48-3.36,40.74,1.53,71.92,8.83,56.33,5.39,52.39-10.35,75.5Z"/>
    <path class="cls-2" d="M341.61,150.59c-.11.15-.21.31-.31.46-5.66,8.37-17.55,29.67-23.12,49.51h-3.45c-.05-16.36-20.45-16.48-19.85-42.81.73-32.15,16.46-43.66,19.82-69.46,1.99-15.24-5.28-31.27-11.57-41.85l16.26,11.57,15.51,31.02.06-.37c.83,8.53,1.04,18.93-.68,29.44-2.29,14.04,2.6,25.3,7.34,32.49Z"/>
    <path class="cls-1" d="M294.88,157.75c-.6,26.33,19.8,26.45,19.85,42.81h-56c-.58-4.12-.55-10.04,1.09-18.36,4.18-21.29,10.22-23.21,20.95-39.71,4.71-7.24,6.53-18.16,7.08-28.14l.21,1.24,14.74-69.39.33.24c6.29,10.58,13.56,26.61,11.57,41.85-3.36,25.8-19.09,37.31-19.82,69.46Z"/>
    <path class="cls-5" d="M287.85,114.35c-.56,9.98-2.38,20.9-7.08,28.14-10.72,16.5-16.77,18.42-20.95,39.71-1.63,8.32-1.66,14.24-1.09,18.36h-24.65c-2.37-13.94-6.28-42.06-3.27-61.37,4.16-26.57,31.16-43.92,34.63-82.23,2.03-22.33-4.05-42.43-9.48-55.31l15.4,14.91,16.48,97.79Z"/>
    <path class="cls-10" d="M230.81,139.19c-3.01,19.31.9,47.43,3.27,61.37h-52.07c-2.8-5.79-5.05-12.89-5.04-20.74.02-20.73,10.87-47.79,30.39-58.44,8.08-4.41,13.31-11.3,16.65-17.85l.15.35,15.71-17.89L255.64,1.34l.32.31c5.43,12.88,11.51,32.98,9.48,55.31-3.47,38.31-30.47,55.66-34.63,82.23Z"/>
    <path class="cls-11" d="M224.01,103.53c-2.48,4.86-6.01,9.91-10.96,13.99-2.59-3.23-5.83-8.47-7.24-15.66-1.21-6.2-.11-20.36,1.14-31.96l1.48-3.4,15.57,37.03Z"/>
    <path class="cls-12" d="M213.05,117.52c-1.72,1.42-3.61,2.72-5.69,3.86-16.77,9.15-27.14,30.42-29.73,49.37-.1-.28-3.56-10.78-2.65-26.61.93-16.06,12.28-14.73,18.02-26.62,2.93-6.06,1.07-9.77-.28-14.7l15.72-36.32c-1.25,11.6-3.83,29.16-2.62,35.36,1.41,7.19,4.65,12.43,7.24,15.66Z"/>
    <path class="cls-13" d="M193,117.52c-3.6,7.45-9.39,9.71-13.44,14.31-1.42-2.69-3.08-6.14-4.73-10.28-2.69-6.71-.93-17.2.77-24.15l1.36,3.01,15.76,2.41h0c1.35,4.93,3.22,8.64.28,14.7Z"/>
    <path class="cls-15" d="M182.01,200.56h-49.95c-1.84-5.91-3.74-14.09-5.02-25.02-3.28-27.96,20.97-51.34,30.1-78.14,3.93-11.55,4.48-22.6,3.83-31.44l.26-.26,15.72,34.71c-1.7,6.95-4.82,14.43-2.13,21.14,1.65,4.14,3.32,7.59,4.73,10.28-2.43,2.74-4.23,6.31-4.58,12.31-.91,15.83,2.55,26.33,2.65,26.61h0c-.44,3.11-.66,6.15-.66,9.07,0,7.85,2.24,14.95,5.04,20.74Z"/>
    <path class="cls-19" d="M157.14,97.4c-1.57,4.61-3.59,9.11-5.83,13.56-1.58-3.38-3.9-7.89-7.3-13.56-2.68-4.49-1.4-11.76.63-18.21l.87,2,15.46-15.23c.66,8.84.11,19.89-3.83,31.44Z"/>
    <path class="cls-20" d="M127.04,175.54c1.28,10.93,3.18,19.11,5.02,25.02h-40.68c9.47-11.88,14.23-33.42,22.99-46,12.56-18.04,11.2-52.54,9.53-79.27-.79-12.68,2.62-22.42,6.44-29.16l15.17,35.06c-2.03,6.45-4.18,11.72-1.5,16.21,3.39,5.67,5.72,10.18,7.3,13.56-10.82,21.41-26.98,41.43-24.27,64.58Z"/>
    <path class="cls-21" d="M123.9,75.29c1.67,26.73,3.03,61.23-9.53,79.27-5.86,8.42-9.93,20.84-14.81,31.7-1.5-8.66-3.25-20.47-4.94-35.67-4.16-37.37,22.11-54.65,26.73-67.06,2.71-7.28-2.41-17.36-7.1-24.44l15.55-14.22.55,1.26c-3.82,6.74-7.23,16.48-6.44,29.16Z"/>
    <path class="cls-22" d="M121.35,83.53c-2.5,6.73-11.37,14.89-18.29,26.9-.56-2.34-1.1-5.16-1.6-8.57-2.67-17.95,1.04-16.38,1.88-29.68.42-6.72-2.63-16.99-5.76-25.49l.74-3.43,15.72,16.03.22-.2c4.7,7.08,9.81,17.16,7.1,24.44Z"/>
    <path class="cls-14" d="M103.33,72.18c-.84,13.3-4.55,11.73-1.88,29.68.51,3.41,1.05,6.23,1.6,8.57-5.86,10.15-10.34,23.05-8.43,40.16,1.69,15.2,3.44,27.01,4.94,35.67-2.43,5.38-5.05,10.37-8.18,14.3h-39.66c.31-3.29.98-7.92,2.31-14.3,3.59-17.23,20.27-27.53,27.83-39.11,4.65-7.12,2.23-18.94.72-31.78l15.72-72.11c3.13,8.5,5.44,22.2,5.02,28.92Z"/>
    <path class="cls-17" d="M84.57,135.45c0,4.59-.68,8.59-2.71,11.7-3.78,5.79-9.83,11.25-15.4,17.43-1.44-9.9-2.69-22.64-.64-27.94,3.58-9.25,3.23-28.99.61-47.61-2.94-20.88-1.85-46.59,1.26-62.18l14.89,88.52c.85,7.24,1.99,14.15,1.99,20.08Z"/>
    <path class="cls-16" d="M66.46,164.58c-5.57,6.18-10.63,13.06-12.43,21.68-1.33,6.38-2,11.01-2.31,14.3h-27.14c-3.31-37.73,22.18-33.29,27.14-44.37,2.93-6.52,1.24-11.94-.62-17.06l15.76-117.23.57,3.4c-1.11,17.92-3.94,42.85-1,63.73,2.62,18.62,2.97,38.36-.61,47.61-2.05,5.3-.8,18.04.64,27.94Z"/>
    <path class="cls-18" d="M51.72,156.19c-4.96,11.08-30.44,6.64-27.14,44.37H4.77S-1.07,184.24.17,157.02c1.24-27.23,19.49-47.26,19.49-47.26l15.72-16.02,12.72,36.72,3,8.67h0c1.86,5.12,3.54,10.54.62,17.06Z"/>
    <path class="cls-23" d="M177.63,170.76h0"/>
  </g>
</svg>