<?xml version="1.0" encoding="UTF-8"?>
<svg id="Layer_2" data-name="Layer 2" xmlns="http://www.w3.org/2000/svg" xmlns:xlink="http://www.w3.org/1999/xlink" viewBox="0 0 720.49 219.46">
  <defs>
    <style>
      .cls-1 {
        fill: none;
      }

      .cls-2 {
        fill: url(#linear-gradient-8);
      }

      .cls-3 {
        fill: url(#linear-gradient-7);
      }

      .cls-4 {
        fill: url(#linear-gradient-5);
      }

      .cls-5 {
        fill: url(#linear-gradient-6);
      }

      .cls-6 {
        fill: url(#linear-gradient-9);
      }

      .cls-7 {
        fill: url(#linear-gradient-4);
      }

      .cls-8 {
        fill: url(#linear-gradient-3);
      }

      .cls-9 {
        fill: url(#linear-gradient-2);
      }

      .cls-10 {
        fill: url(#linear-gradient);
      }

      .cls-11 {
        fill: url(#linear-gradient-10);
      }

      .cls-12 {
        fill: url(#linear-gradient-11);
      }

      .cls-13 {
        fill: url(#linear-gradient-12);
      }

      .cls-14 {
        fill: url(#linear-gradient-13);
      }

      .cls-15 {
        fill: url(#linear-gradient-19);
      }

      .cls-16 {
        fill: url(#linear-gradient-14);
      }

      .cls-17 {
        fill: url(#linear-gradient-20);
      }

      .cls-18 {
        fill: url(#linear-gradient-15);
      }

      .cls-19 {
        fill: url(#linear-gradient-16);
      }

      .cls-20 {
        fill: url(#linear-gradient-17);
      }

      .cls-21 {
        fill: url(#linear-gradient-18);
      }
    </style>
    <linearGradient id="linear-gradient" x1="4.24" y1="115.64" x2="112.94" y2="163.57" gradientUnits="userSpaceOnUse">
      <stop offset="0" stop-color="#b53b96"/>
      <stop offset=".03" stop-color="#ba489d"/>
      <stop offset=".16" stop-color="#cc78b7"/>
      <stop offset=".29" stop-color="#dba2cd"/>
      <stop offset=".42" stop-color="#e8c3df"/>
      <stop offset=".56" stop-color="#f2dded"/>
      <stop offset=".7" stop-color="#f9f0f7"/>
      <stop offset=".84" stop-color="#fdfbfd"/>
      <stop offset="1" stop-color="#fff"/>
    </linearGradient>
    <linearGradient id="linear-gradient-2" x1="7.56" y1="150.78" x2="121.46" y2="125.85" xlink:href="#linear-gradient"/>
    <linearGradient id="linear-gradient-3" x1="132.15" y1="116.95" x2="244.95" y2="116.95" xlink:href="#linear-gradient"/>
    <linearGradient id="linear-gradient-4" x1="47.7" y1="116.69" x2="228.25" y2="141.05" xlink:href="#linear-gradient"/>
    <linearGradient id="linear-gradient-5" x1="156.35" y1="59.52" x2="157.01" y2="59.61" xlink:href="#linear-gradient"/>
    <linearGradient id="linear-gradient-6" x1="160.79" y1="150.86" x2="279.26" y2="124.93" xlink:href="#linear-gradient"/>
    <linearGradient id="linear-gradient-7" x1="299.28" y1="133.45" x2="405.69" y2="106.23" xlink:href="#linear-gradient"/>
    <linearGradient id="linear-gradient-8" x1="267.41" y1="120.16" x2="320.58" y2="120.16" xlink:href="#linear-gradient"/>
    <linearGradient id="linear-gradient-9" x1="226.22" y1="141.53" x2="314.18" y2="141.53" xlink:href="#linear-gradient"/>
    <linearGradient id="linear-gradient-10" x1="361.24" y1="133.52" x2="469.68" y2="133.52" xlink:href="#linear-gradient"/>
    <linearGradient id="linear-gradient-11" x1="354.12" y1="126.32" x2="404.59" y2="113.41" xlink:href="#linear-gradient"/>
    <linearGradient id="linear-gradient-12" x1="439.05" y1="150.96" x2="498.14" y2="120.42" xlink:href="#linear-gradient"/>
    <linearGradient id="linear-gradient-13" x1="465.95" y1="146.42" x2="532.04" y2="126.51" xlink:href="#linear-gradient"/>
    <linearGradient id="linear-gradient-14" x1="456.05" y1="107.42" x2="470.83" y2="107.42" xlink:href="#linear-gradient"/>
    <linearGradient id="linear-gradient-15" x1="455.55" y1="97.42" x2="456.05" y2="97.42" xlink:href="#linear-gradient"/>
    <linearGradient id="linear-gradient-16" x1="560.6" y1="110.95" x2="593.96" y2="94.22" xlink:href="#linear-gradient"/>
    <linearGradient id="linear-gradient-17" x1="498.89" y1="155.93" x2="586.16" y2="129.64" xlink:href="#linear-gradient"/>
    <linearGradient id="linear-gradient-18" x1="655.82" y1="150.57" x2="720.49" y2="150.57" xlink:href="#linear-gradient"/>
    <linearGradient id="linear-gradient-19" x1="614.51" y1="146.04" x2="672.21" y2="146.04" xlink:href="#linear-gradient"/>
    <linearGradient id="linear-gradient-20" x1="564.41" y1="136.57" x2="645.98" y2="136.57" xlink:href="#linear-gradient"/>
  </defs>
  <g id="Steamboar_Contours">
    <g>
      <path class="cls-10" d="M70.2,152.84c12.89-34.27-8.17-47.45-11.73-62.39-3.57-14.94,20.18-39.19,20.18-39.19,0,0-38.53,24.38-42.4,52.88-3.87,28.5,3.01,34.33-12.04,58.43C9.17,186.67-.14,198.14,0,210.96h59.51s-1.04-4.7-7.5-12.74c-8.17-10.17,5.3-11.1,18.19-45.37Z"/>
      <path class="cls-9" d="M106.3,175.69c-14.67-13.6-10.17-40.68-9.1-42.63,1.07-1.95-2.93-7.46-2.93-7.46l-15.63-74.34s-23.74,24.26-20.18,39.19c3.57,14.94,24.63,28.12,11.73,62.39-12.89,34.27-26.37,35.19-18.19,45.37,6.46,8.04,7.5,12.74,7.5,12.74h56.68s4.78-21.66-9.89-35.26Z"/>
    </g>
    <path class="cls-8" d="M158.08,210.95c.24-12.7-2.98-35.41-15.64-48.55-15.82-16.43-11.44-36.74,0-58.26,7.59-14.28,11.66-30.97,13.55-40.6l.67.81,16.41-41.4,15.36,88.73s7.53,26.79,30.15,45.87c22.61,19.07,26.38,53.4,26.38,53.4h-86.87Z"/>
    <path class="cls-7" d="M158.08,210.95h-41.88s5.39-21.14-9.89-35.26c-15.28-14.11-13.56-42.88-12.03-50.09,1.54-7.2,15.86-74.61,15.86-74.61l13.38-9.09,18.06,4.02,14.41,17.62c-1.89,9.63-5.96,26.32-13.55,40.6-11.44,21.52-15.82,41.83,0,58.26,12.66,13.14,15.89,35.85,15.64,48.55Z"/>
    <path class="cls-1" d="M158.08,210.95c-.06,3.18-.34,5.73-.74,7.35"/>
    <path class="cls-4" d="M157.33,55.58s-.39,3.07-1.35,7.96"/>
    <path class="cls-5" d="M251.26,177.9c1.99,12.18.7,25.29-4.93,33.05h-1.38s-11.43-45.64-35.35-62.15c-23.93-16.51-21.14-26.66-21.19-37.12l16.07-49.2,29.56,15.75h0c-6.91,6.78-11.13,14.96-4.52,21.2,12.31,11.62,27.7,17.91,30,31.68,2.31,13.76-10.78,31.46-8.28,46.79Z"/>
    <path class="cls-3" d="M312.1,203.65c8.26-16.09,11.07-35.53,5.79-57.33-5.28-21.8-12.55-25.72-18.17-33.34-5.95-8.05-3.85-23.16-1.87-35.6l1.87,6.11,14.89-58.67,15.72,24.84c25.15,37.04,18.88,67.29,18.88,67.29,0,0,.55,38.36,25.98,55.98s30.45,38.02,30.45,38.02h-96.69c.87-2.47,1.91-4.92,3.13-7.3Z"/>
    <path class="cls-2" d="M312.1,203.65c-1.22,2.38-2.26,4.83-3.13,7.31h-.96l-40.6-118.04,15.76-63.56,14.68,48.02c-1.99,12.44-4.08,27.55,1.87,35.6,5.62,7.62,12.88,11.54,18.17,33.34,5.28,21.8,2.47,41.24-5.79,57.33Z"/>
    <path class="cls-6" d="M308.01,210.96h-61.68c5.64-7.77,6.92-20.88,4.93-33.06-2.5-15.33,10.59-33.03,8.28-46.79-2.31-13.77-17.7-20.06-30-31.68-6.61-6.24-2.39-14.42,4.52-21.2l17.64-6.14,15.72,20.83c12.51,19.71,10.98,17.35,18.67,38.19,7.7,20.84,16.54,34.21,25.01,45.61,8.46,11.41-3.07,34.24-3.07,34.24Z"/>
    <path class="cls-11" d="M469.68,210.96h-64.02s-2.92-5.09-7.49-11.86c5.83-10.52,10.65-22.91,7.49-31.48-6.54-17.73-28.7-32.62-27.29-58.46,1.22-22.33-6.72-25.33-17.12-42.95l16.3-10.14,15.74,29.4,31.46,43.77c25.42,33.95,24.24,45.99,25.42,49.47,1.16,3.47,5.42,23.75,19.52,32.25Z"/>
    <path class="cls-12" d="M398.16,199.1c-7.26-10.73-18.69-25.71-29.33-31.48-17.36-9.42-19.62-50.67-19.62-50.67,0,0-2.69-46.25-18.88-67.29l15.76-5.34,15.14,21.89h0c10.4,17.62,18.34,20.62,17.12,42.95-1.41,25.84,20.75,40.73,27.29,58.46,3.16,8.57-1.66,20.96-7.49,31.48Z"/>
    <path class="cls-1" d="M398.16,199.1c-6.22,11.25-13.61,20.36-13.61,20.36"/>
    <path class="cls-13" d="M484.85,206.25c.45,1.55,1.03,3.13,1.71,4.71h-16.89s-18.5-13.54-28.73-43.34c-7.23-21.04-16.2-38.38-16.2-38.38l15.72-63.56,15.58,34.18c.93,7.01,3.51,19.81,10.37,26.57,9.76,9.61,20.6,15.15,23.86,31.77,3.25,16.63-9.22,34.85-5.43,48.05Z"/>
    <path class="cls-14" d="M529.31,192.56c-5.97,12.75-12.69,18.4-12.69,18.4h-30.06c-.68-1.58-1.26-3.16-1.71-4.71-3.79-13.2,8.68-31.42,5.43-48.05-3.26-16.62-14.1-22.16-23.86-31.77-1.69-1.67-3.12-3.71-4.33-5.94.79-8.41,5.53-16.38,8.75-26.14l1.12-.63,15.72-33.65,15.71,63.03s-5.13,17.54,7.5,34.45c12.62,16.9,24.39,22.27,18.43,35.01Z"/>
    <path class="cls-16" d="M470.83,94.35c-3.22,9.76-7.95,17.73-8.75,26.14-3.7-6.79-5.33-15.35-6.04-20.63l1,2.19,13.71-7.66.08-.04Z"/>
    <path class="cls-18" d="M456.05,99.86c-.4-2.96-.5-4.88-.5-4.88"/>
    <path class="cls-19" d="M574.57,194.32c1.25,14.21.38,17.68.38,17.68l-8.1-.14c-3.68-3.62-8.3-8.15-12.98-12.76-10.54-10.33-10.08-29.69-4.99-42.85,5.09-13.16-1.54-33.31-1.54-38.36,0-3.01,1.15-17.53,2.08-28.74l1.15,1.37L565.98,0l17.02,138.32s-16.87,20.67-17.64,30.08c-.76,9.4,7.94,11.7,9.21,25.92Z"/>
    <path class="cls-20" d="M515.15,162.91c-20.77-21.38-16.1-24.59-11.77-39.81,2.41-8.45,15.72-49.67,15.72-49.67l15.76-1.61,14.57,17.33c-.93,11.21-2.08,25.73-2.08,28.74,0,5.05,6.62,25.2,1.54,38.36-5.09,13.16-5.55,32.52,4.99,42.85,4.69,4.61,9.3,9.14,12.98,12.76l-50.23-.9s24.77-21.01-1.48-48.05Z"/>
    <path class="cls-21" d="M720.49,210.95l-64.67.46c0-1.96.09-4.16.26-6.61,1.2-16.66,6.94-16.97,11.41-33.32,4.48-16.35-5.37-27.46-5.67-40.32-.3-12.86,11.81-22.94,10.26-28.17-.98-3.32-9.52-7.81-12.74-11.03l17.09-2.24s15.39,5.33,16.54,30.44c1.16,25.11-25.02,44.42,0,64.24,25.03,19.82,27.51,26.55,27.51,26.55Z"/>
    <path class="cls-15" d="M661.82,131.16c.3,12.86,10.15,23.97,5.67,40.32-4.47,16.35-10.2,16.66-11.41,33.32-.18,2.45-.25,4.65-.26,6.61l-41.31.3c12.63-8.88,32.77-24.77,31.4-34.93-1.99-14.74-15.41-19.82-21.4-31.08-3.96-7.45,2.01-11.02,4.72-19.88h0l15.72-45.45,14.39,11.59h0c3.22,3.22,11.76,7.71,12.74,11.03,1.55,5.23-10.57,15.31-10.26,28.17Z"/>
    <path class="cls-17" d="M614.51,211.71l-39.55.29s2.37-9.05-4.24-28.87c-4.03-12.09-11.91-8.64,0-28.32,2.73-4.52,11.31-17.83,11.31-17.83l15.76-30.17,15.72-45.67,14.43,68.11c-2.71,8.86-7.38,9-3.42,16.45,5.99,11.26,19.41,16.34,21.4,31.08,1.37,10.16-18.77,26.05-31.4,34.93Z"/>
  </g>
</svg>