<?xml version="1.0" encoding="UTF-8"?>
<svg id="Layer_2" data-name="Layer 2" xmlns="http://www.w3.org/2000/svg" xmlns:xlink="http://www.w3.org/1999/xlink" viewBox="0 0 669.16 95.64">
  <defs>
    <style>
      .cls-1 {
        fill: url(#linear-gradient-8);
      }

      .cls-2 {
        fill: url(#linear-gradient-7);
      }

      .cls-3 {
        fill: url(#linear-gradient-5);
      }

      .cls-4 {
        fill: url(#linear-gradient-6);
      }

      .cls-5 {
        fill: url(#linear-gradient-9);
      }

      .cls-6 {
        fill: url(#linear-gradient-4);
      }

      .cls-7 {
        fill: url(#linear-gradient-3);
      }

      .cls-8 {
        fill: url(#linear-gradient-2);
      }

      .cls-9 {
        fill: url(#linear-gradient);
      }

      .cls-10 {
        fill: url(#linear-gradient-10);
      }

      .cls-11 {
        fill: url(#linear-gradient-11);
      }

      .cls-12 {
        fill: url(#linear-gradient-12);
      }

      .cls-13 {
        fill: url(#linear-gradient-13);
      }

      .cls-14 {
        fill: url(#linear-gradient-19);
      }

      .cls-15 {
        fill: url(#linear-gradient-14);
      }

      .cls-16 {
        fill: url(#linear-gradient-21);
      }

      .cls-17 {
        fill: url(#linear-gradient-20);
      }

      .cls-18 {
        fill: url(#linear-gradient-22);
      }

      .cls-19 {
        fill: url(#linear-gradient-23);
      }

      .cls-20 {
        fill: url(#linear-gradient-28);
      }

      .cls-21 {
        fill: url(#linear-gradient-25);
      }

      .cls-22 {
        fill: url(#linear-gradient-32);
      }

      .cls-23 {
        fill: url(#linear-gradient-31);
      }

      .cls-24 {
        fill: url(#linear-gradient-33);
      }

      .cls-25 {
        fill: url(#linear-gradient-30);
      }

      .cls-26 {
        fill: url(#linear-gradient-15);
      }

      .cls-27 {
        fill: url(#linear-gradient-16);
      }

      .cls-28 {
        fill: url(#linear-gradient-17);
      }

      .cls-29 {
        fill: url(#linear-gradient-18);
      }

      .cls-30 {
        fill: url(#linear-gradient-35);
      }

      .cls-31 {
        fill: url(#linear-gradient-34);
      }

      .cls-32 {
        fill: url(#linear-gradient-36);
      }

      .cls-33 {
        fill: url(#linear-gradient-38);
      }

      .cls-34 {
        fill: url(#linear-gradient-27);
      }

      .cls-35 {
        fill: url(#linear-gradient-24);
      }

      .cls-36 {
        fill: url(#linear-gradient-26);
      }

      .cls-37 {
        fill: url(#linear-gradient-29);
      }

      .cls-38 {
        fill: url(#linear-gradient-37);
      }

      .cls-39 {
        fill: url(#linear-gradient-39);
      }
    </style>
    <linearGradient id="linear-gradient" x1="641.11" y1="75.56" x2="674.71" y2="54.13" gradientUnits="userSpaceOnUse">
      <stop offset="0" stop-color="#061a17"/>
      <stop offset="1" stop-color="#fff"/>
    </linearGradient>
    <linearGradient id="linear-gradient-2" x1="623.85" y1="62.62" x2="653.44" y2="62.62" xlink:href="#linear-gradient"/>
    <linearGradient id="linear-gradient-3" x1="622.64" y1="56.27" x2="638.45" y2="56.27" xlink:href="#linear-gradient"/>
    <linearGradient id="linear-gradient-4" x1="600.78" y1="61.42" x2="628.83" y2="61.42" xlink:href="#linear-gradient"/>
    <linearGradient id="linear-gradient-5" x1="577.43" y1="61.48" x2="607.11" y2="61.48" xlink:href="#linear-gradient"/>
    <linearGradient id="linear-gradient-6" x1="563.36" y1="57.28" x2="592.58" y2="57.28" xlink:href="#linear-gradient"/>
    <linearGradient id="linear-gradient-7" x1="541.95" y1="57.79" x2="573.35" y2="57.79" xlink:href="#linear-gradient"/>
    <linearGradient id="linear-gradient-8" x1="504.68" y1="46.85" x2="546.94" y2="46.85" xlink:href="#linear-gradient"/>
    <linearGradient id="linear-gradient-9" x1="493.6" y1="46.46" x2="527.81" y2="46.46" xlink:href="#linear-gradient"/>
    <linearGradient id="linear-gradient-10" x1="460.96" y1="59.05" x2="513.2" y2="59.05" xlink:href="#linear-gradient"/>
    <linearGradient id="linear-gradient-11" x1="443.15" y1="71.62" x2="483.1" y2="52.37" xlink:href="#linear-gradient"/>
    <linearGradient id="linear-gradient-12" x1="408.69" y1="61.04" x2="450.38" y2="61.04" xlink:href="#linear-gradient"/>
    <linearGradient id="linear-gradient-13" x1="397.04" y1="57.85" x2="418.98" y2="57.85" xlink:href="#linear-gradient"/>
    <linearGradient id="linear-gradient-14" x1="382.24" y1="57.69" x2="402.96" y2="57.69" xlink:href="#linear-gradient"/>
    <linearGradient id="linear-gradient-15" x1="358.76" y1="63.15" x2="386.51" y2="63.15" xlink:href="#linear-gradient"/>
    <linearGradient id="linear-gradient-16" x1="363.94" y1="50.92" x2="378.77" y2="45.57" xlink:href="#linear-gradient"/>
    <linearGradient id="linear-gradient-17" x1="329.71" y1="62.26" x2="361.03" y2="62.26" xlink:href="#linear-gradient"/>
    <linearGradient id="linear-gradient-18" x1="319.72" y1="46.31" x2="339.35" y2="46.31" xlink:href="#linear-gradient"/>
    <linearGradient id="linear-gradient-19" x1="294.49" y1="51.38" x2="340.44" y2="51.38" xlink:href="#linear-gradient"/>
    <linearGradient id="linear-gradient-20" x1="270.06" y1="51.15" x2="311.79" y2="51.15" xlink:href="#linear-gradient"/>
    <linearGradient id="linear-gradient-21" x1="244.32" y1="52.18" x2="292" y2="52.18" xlink:href="#linear-gradient"/>
    <linearGradient id="linear-gradient-22" x1="222.45" y1="51.98" x2="262.09" y2="51.98" xlink:href="#linear-gradient"/>
    <linearGradient id="linear-gradient-23" x1="201.15" y1="52.64" x2="244.28" y2="52.64" xlink:href="#linear-gradient"/>
    <linearGradient id="linear-gradient-24" x1="211.69" y1="46.95" x2="229.12" y2="46.95" xlink:href="#linear-gradient"/>
    <linearGradient id="linear-gradient-25" x1="179.17" y1="61.15" x2="215.43" y2="61.15" xlink:href="#linear-gradient"/>
    <linearGradient id="linear-gradient-26" x1="164.69" y1="64.35" x2="196.27" y2="64.35" xlink:href="#linear-gradient"/>
    <linearGradient id="linear-gradient-27" x1="173.43" y1="43.72" x2="189.36" y2="37.01" xlink:href="#linear-gradient"/>
    <linearGradient id="linear-gradient-28" x1="137.23" y1="63.13" x2="176.75" y2="63.13" xlink:href="#linear-gradient"/>
    <linearGradient id="linear-gradient-29" x1="118.6" y1="60.18" x2="150.35" y2="60.18" xlink:href="#linear-gradient"/>
    <linearGradient id="linear-gradient-30" x1="96.55" y1="59.82" x2="134.96" y2="59.82" xlink:href="#linear-gradient"/>
    <linearGradient id="linear-gradient-31" x1="85.12" y1="48.33" x2="119.28" y2="48.33" xlink:href="#linear-gradient"/>
    <linearGradient id="linear-gradient-32" x1="90.06" y1="17.46" x2="106.33" y2="9.75" xlink:href="#linear-gradient"/>
    <linearGradient id="linear-gradient-33" x1="53.53" y1="51.29" x2="92.9" y2="51.29" xlink:href="#linear-gradient"/>
    <linearGradient id="linear-gradient-34" x1="30.21" y1="52.82" x2="82.67" y2="52.82" xlink:href="#linear-gradient"/>
    <linearGradient id="linear-gradient-35" x1="19.35" y1="57.09" x2="56.51" y2="57.09" xlink:href="#linear-gradient"/>
    <linearGradient id="linear-gradient-36" x1="0" y1="57.1" x2="40.22" y2="57.1" xlink:href="#linear-gradient"/>
    <linearGradient id="linear-gradient-37" x1="361.03" y1="69.11" x2="363.53" y2="69.11" xlink:href="#linear-gradient"/>
    <linearGradient id="linear-gradient-38" x1="173.3" y1="62.59" x2="176.75" y2="62.59" xlink:href="#linear-gradient"/>
    <linearGradient id="linear-gradient-39" x1="29.92" y1="94.28" x2="30.21" y2="94.28" xlink:href="#linear-gradient"/>
  </defs>
  <g id="Winterpark_Contours">
    <path class="cls-9" d="M669.16,92.93h-39.32c6-9.72,12.97-29.34,15.15-41.17,1.3-7.03,4.98-14,8.44-19.32-.16,30.62,15.72,60.49,15.72,60.49Z"/>
    <path class="cls-8" d="M653.44,32.32v.12c-3.46,5.32-7.14,12.29-8.44,19.32-2.18,11.83-9.16,31.45-15.15,41.17h-6c2.65-5.94,3.33-12.87,4.05-15.76,1.07-4.29-.82-8.84,6.84-22.72,2.56-4.64,3.55-8.44,3.72-11.44l14.99-10.69Z"/>
    <path class="cls-7" d="M638.45,43.01c-.17,3-1.15,6.8-3.72,11.44-3.88,7.03-5.31,11.67-5.91,15.09-1.93-1.7-3.87-4.25-4.98-8.02-1.62-5.52-1.31-13.05-.8-18.24l15.38-.25.03-.02Z"/>
    <path class="cls-6" d="M628.83,69.54c-.6,3.33-.4,5.52-.93,7.63-.72,2.89-1.4,9.82-4.05,15.76h-22.4c-1.93-10.88.61-21.84,4.15-36.66,2.22-9.3,1.67-18.81.48-26.24l.17-.12,16.71,13.37h.1c-.51,5.19-.82,12.72.8,18.24,1.11,3.77,3.05,6.32,4.98,8.02Z"/>
    <path class="cls-3" d="M605.59,56.27c-3.54,14.82-6.08,25.78-4.15,36.66h-22.89c-.64-2.19-1.07-4.96-1.12-8.44-.24-16.95,9.3-16.31,14.32-28.22,2.21-5.22.25-10.21-.73-15.51l15.05-10.73c1.19,7.43,1.74,16.94-.48,26.24Z"/>
    <path class="cls-4" d="M591.76,56.27c-5.02,11.91-14.57,11.27-14.32,28.22.05,3.48.48,6.25,1.12,8.44h-8.93c.17-6.2-5.24-7.08-6.11-20.87-1.14-18.34,4.62-14.14,8.73-35.85,1.11-5.84,1.3-10.24.99-13.56h0s1.58-1.02,1.58-1.02l16.23,19.13s2.94,10.29.73,15.51Z"/>
    <path class="cls-2" d="M572.23,36.21c-4.11,21.71-9.87,17.51-8.73,35.85.87,13.79,6.28,14.67,6.11,20.87h-22.68c-1.67-5.35-3.76-12.58-4.68-18.01-.87-5.18.23-10.89,1.05-16.7h0l15.76-26.44,14.15-9.13c.31,3.32.12,7.72-.99,13.56Z"/>
    <path class="cls-1" d="M546.94,92.93h-42.26c4.4-3,9.54-6.34,13.99-8.84,10.35-5.8,5.68-19.11,3.35-51.77-.92-12.86,1.96-23.44,5.79-31.54l15.51,57.44c-.81,5.81-1.92,11.52-1.05,16.7.92,5.43,3,12.66,4.68,18.01Z"/>
    <path class="cls-5" d="M522.02,32.32c2.34,32.66,7,45.97-3.35,51.77-4.45,2.5-9.59,5.84-13.99,8.84h-7.56c1.1-8.91-3.07-16.93-3.48-25.22-.67-13.31,7.35-21.16,13.35-26.96,3.29-3.17,5.18-10.02,6.21-15.57l14.39-25.18.22.78c-3.83,8.1-6.71,18.68-5.79,31.54Z"/>
    <path class="cls-10" d="M513.2,25.18c-1.04,5.55-2.93,12.4-6.21,15.57-6.01,5.8-14.02,13.65-13.35,26.96.41,8.29,4.58,16.31,3.48,25.22h-15.23c1.19-16.98-8.6-15.62-17.63-31.51-5.56-9.77-3.13-20.22.3-27.8l.11.03,15.72-5.87,15.76-.81,15.72.54,1.33-2.33Z"/>
    <path class="cls-11" d="M481.89,92.93h-42.15c-2.25-17.86-3.46-29.1,5.98-42.38,6.07-8.51,5.3-15.93,2.8-21.4l.44-.31,15.6,4.78c-3.43,7.58-5.86,18.03-.3,27.8,9.03,15.89,18.82,14.53,17.63,31.51Z"/>
    <path class="cls-12" d="M445.72,50.55c-9.44,13.28-8.23,24.52-5.98,42.38h-31.05c1.15-7.89,4.1-14.79,7.66-23.39,2.49-6.02,2.89-12.29,2.5-17.53l15.12-12.48,14.54-10.38c2.5,5.47,3.27,12.89-2.8,21.4Z"/>
    <path class="cls-13" d="M416.35,69.54c-3.56,8.6-6.51,15.5-7.66,23.39h-11.65c5.91-11.75,7.78-31.32,3.85-44.59-2.32-7.86-1.13-17.36.93-25.57l15.64,30.38,1.39-1.14c.38,5.24,0,11.51-2.5,17.53Z"/>
    <path class="cls-15" d="M397.04,92.93h-14.79c.04-4.25.52-8.31,1.76-11.45,2.24-5.7,2.87-12.45,2.32-18.94h0l15.33-40.09.17.32c-2.06,8.21-3.25,17.71-.93,25.57,3.92,13.27,2.05,32.84-3.85,44.59Z"/>
    <path class="cls-26" d="M384.01,81.48c-1.24,3.14-1.72,7.2-1.76,11.45h-21.49c-4.25-15.65-1.44-23.37,5.86-39.18,3.24-7.01,3.54-13.92,2.64-19.83l1.06-.54,16.01,29.16c.55,6.49-.08,13.24-2.32,18.94Z"/>
    <path class="cls-27" d="M366.61,53.75c-2.36,5.1-4.24,9.35-5.58,13.3-2.93-5.2-7.33-14.35-6.95-21.78.07-1.38.23-2.67.47-3.88t0,0l14.69-7.46c.9,5.91.6,12.82-2.64,19.83Z"/>
    <path class="cls-28" d="M360.75,92.93h-25.43c.63-1.73,1.29-3.6,1.98-5.61,9.48-27.81-5.37-21.27-7.44-33.11-1.16-6.65,4.38-15.84,9.48-22.62l15.2,9.8h0c-.23,1.21-.4,2.5-.47,3.88-.38,7.43,4.02,16.58,6.95,21.78-2.8,8.31-3.16,15.27-.28,25.88Z"/>
    <path class="cls-29" d="M336.31,63.16s-22.22-5.94-15.23-19.97c2.61-5.25,3.1-9.93,2.67-13.73l15.08,1.79.52.34c-5.1,6.78-10.64,15.97-9.48,22.62.85,4.87,3.85,6.63,6.45,8.95Z"/>
    <path class="cls-14" d="M337.3,87.32c-.68,2.01-1.35,3.88-1.98,5.61h-32.33c4.76-9.65,13.43-29.46,5.74-32.05-10.22-3.43-13.54-15.29-14.22-24.98-.45-6.49,7.89-18.7,13.46-26.07l15.13,19.55.65.08c.43,3.8-.06,8.48-2.67,13.73-6.99,14.03,15.23,19.97,15.23,19.97,3.72,3.32,6.57,7.78.99,24.16Z"/>
    <path class="cls-17" d="M302.99,92.93h-29.28c-2.46-3.9-4.04-8.88-3.57-15.16,1.7-22.9,8.8-23.68,15.91-38.41,5.05-10.47,6.09-20.65,5.94-27.92l15.63-2.06.35.45c-5.57,7.37-13.91,19.58-13.46,26.07.68,9.69,4,21.55,14.22,24.98,7.69,2.59-.98,22.4-5.74,32.05Z"/>
    <path class="cls-16" d="M270.14,77.77c-.47,6.28,1.12,11.26,3.57,15.16h-26.78c-5.38-13.06-1.88-29.06,5.26-35.24,4.97-4.3,8.11-12.95,9.89-19.65l14.19-7.25,15.35-19.3.36-.05c.15,7.27-.89,17.45-5.94,27.92-7.1,14.73-14.21,15.51-15.91,38.41Z"/>
    <path class="cls-18" d="M262.09,38.04c-1.78,6.7-4.92,15.35-9.89,19.65-7.14,6.18-10.64,22.18-5.26,35.24h-23.95c-2.65-21.96,4.78-19.73,15.67-46.62,6.08-15.02,6.32-26.29,4.92-33.95l1.08-1.33,16.51,27.48.92-.47Z"/>
    <path class="cls-19" d="M238.66,46.31c-10.89,26.89-18.32,24.66-15.67,46.62h-21.35c-.7-3.61-.72-7.56.46-11.7,4.83-16.95,16.25-16.26,23.7-34.38,2.74-6.66,3.46-12.24,3.29-16.62l14.49-17.87c1.4,7.66,1.15,18.93-4.92,33.95Z"/>
    <path class="cls-35" d="M225.8,46.85c-3.73,9.05-8.43,13.41-12.83,17.62-3.54-7.01,1.22-15.73,2.32-24.42.47-3.69-.35-7.37-1.63-10.61l15.04,1.27.39-.48c.18,4.38-.55,9.96-3.29,16.62Z"/>
    <path class="cls-21" d="M215.3,40.05c-1.1,8.69-5.86,17.41-2.32,24.42-4.39,4.21-8.46,8.28-10.88,16.76-1.18,4.14-1.16,8.09-.46,11.7h-22.47c1.55-11.11,7.92-11.5,13.78-26.14,2.92-7.26,3.55-13.01,3.25-17.32l1.06,1.01,15.72-21.1.68.06c1.28,3.24,2.1,6.92,1.63,10.61Z"/>
    <path class="cls-36" d="M192.95,66.79c-5.86,14.64-12.24,15.03-13.78,26.14h-2.42c-2.17-2.88-4.83-6.67-8.01-11.64-10.75-16.8,2.69-17.1,8.37-28.65,2.75-5.59,4.07-11.88,4.7-16.87l14.39,13.7c.3,4.31-.33,10.06-3.25,17.32Z"/>
    <path class="cls-34" d="M181.81,35.77c-.63,4.99-1.95,11.28-4.7,16.87-1.07,2.17-2.41,3.94-3.82,5.5-1.7-3.93-3.91-8.41-6.35-11.83-2.54-3.57-2.65-8.61-2.05-12.97l.88-.76,15.92,3.08.12.11Z"/>
    <path class="cls-20" d="M176.75,92.93h-38.04c-2.03-8.05-2.93-19.92,3.73-31.77,4.11-7.33,6.9-11.64,7.9-15.21h0l14.55-12.61c-.6,4.36-.49,9.4,2.05,12.97,2.44,3.42,4.65,7.9,6.35,11.83-6.07,6.74-13.3,9.5-4.56,23.15,3.18,4.97,5.84,8.76,8.01,11.64Z"/>
    <path class="cls-37" d="M142.44,61.16c-6.65,11.85-5.75,23.72-3.73,31.77h-15.88c2.64-6.7.4-15.8-2.5-21.76-4.78-9.81.9-14.93,10.16-29.94,3.54-5.74,4.56-10.32,4.45-13.79l15.4,18.51c-1.01,3.57-3.8,7.88-7.9,15.21Z"/>
    <path class="cls-25" d="M130.5,41.23c-9.26,15.01-14.95,20.13-10.16,29.94,2.91,5.96,5.15,15.06,2.5,21.76h-26.29c2.19-11.23,11.83-18.05,11.83-18.05,0,0,11.59-16.32,10.22-27.93-.41-3.48-.04-6.93.68-10.04v.02s15.07-10.22,15.07-10.22l.61.73c.11,3.47-.91,8.05-4.45,13.79Z"/>
    <path class="cls-23" d="M118.6,46.95c1.37,11.61-10.22,27.93-10.22,27.93,0,0-9.64,6.82-11.83,18.05h-11.43c4.58-10.56,7.82-26,4.43-37.91-5.38-18.94,4.48-24.74,9.86-38.48,2.04-5.23,2.84-9.47,3.04-12.74l.4-.06,16.42,33.17c-.71,3.11-1.09,6.56-.68,10.04Z"/>
    <path class="cls-22" d="M102.46,3.8c-.21,3.27-1,7.51-3.04,12.74-1.9,4.86-4.36,8.72-6.52,12.53-1.36-4.26-3.23-8.87-5.73-12.84-1.44-2.27-2.2-4.49-2.49-6.58l2.47-3.77,15.32-2.08Z"/>
    <path class="cls-24" d="M89.55,55.02c3.38,11.91.15,27.35-4.43,37.91h-31.59c2.22-10.04,10.17-22.57,19.36-28.58,11.64-7.62,7.68-19.99,6.44-34.89-.49-5.9,1.16-11.79,3.34-16.74l2.01-3.07c.29,2.09,1.06,4.31,2.49,6.58,2.5,3.97,4.37,8.58,5.73,12.84-3.93,6.95-6.83,13.71-3.35,25.95Z"/>
    <path class="cls-31" d="M79.33,29.46c1.24,14.9,5.2,27.27-6.44,34.89-9.19,6.01-17.14,18.54-19.36,28.58h-23.32c2.71-16.7,20.29-21.68,23.32-25.88,1.62-2.26,2.5-7.61,2.97-12.32l14.91-24.82,11.25-17.19c-2.17,4.95-3.83,10.84-3.34,16.74Z"/>
    <path class="cls-30" d="M56.51,54.73c-.47,4.71-1.35,10.06-2.97,12.32-3.03,4.2-20.61,9.18-23.32,25.88h-1.33c-3.33-6.73-7.59-15.89-9.02-21.46-2.48-9.63,4.43-15.2,14.62-28.67,4.7-6.2,5.85-14.44,5.73-21.53l.03-.02,15.46,34.83.81-1.35Z"/>
    <path class="cls-32" d="M34.48,42.8c-10.18,13.47-17.09,19.04-14.62,28.67,1.43,5.57,5.69,14.73,9.02,21.46H0c5.21-10.42,8.49-18.69,8.49-18.69l15.72-43.53,16-9.44c.12,7.09-1.04,15.33-5.73,21.53Z"/>
    <path class="cls-38" d="M363.53,71.17s-1.08-1.59-2.49-4.12l2.49,4.12Z"/>
    <path class="cls-33" d="M173.3,58.14c2.12,4.89,3.45,8.91,3.45,8.91l-3.45-8.91Z"/>
    <path class="cls-39" d="M30.21,92.93c-.14.87-.23,1.77-.29,2.71l.29-2.71Z"/>
  </g>
</svg>