<?xml version="1.0" encoding="UTF-8"?><svg id="Layer_2" xmlns="http://www.w3.org/2000/svg" width="192.1994" height="246.5403" viewBox="0 0 192.1994 246.5403"><defs><style>.cls-1{fill:#866440;}.cls-1,.cls-2,.cls-3,.cls-4,.cls-5,.cls-6{stroke:#000;stroke-miterlimit:10;}.cls-2,.cls-7{fill:#000;}.cls-3{fill:#5a3b1d;}.cls-7{stroke-width:0px;}.cls-4{fill:none;}.cls-5{fill:#704e2c;}.cls-6{fill:#85cadb;}</style></defs><g id="head"><path class="cls-4" d="M160.5,38.5362c-.2988,1.0898,0,2,0,2,0,0,0,.25-.125,1.375s.125,2.625,1.625,4.125,3.25,4,4.625,6.5,2.375,5,2.375,6.5-.75,5.25-.625,9,1.125,7.5,4.625,9,7.25,5,10.125,8.125,4.875,5.875,4.875,5.875c0,0,.25,1,.25,2.375s-.25,3.125-1.25,4.625-3.25,3-5.25,4.125-4.25,2.375-4.25,2.375c0,0,.8032.625,2,1s5,2.5,6,3,3,0,1,4c-.6667,1.3333-1.6667,2.6667-3,4-2,2-3.7011,5.6884-6,6s-5.855,1.2455-2,1c1,0,3-1,3-1,2.5,0,2.875,2,5,3s5,3,3,8c-1.0808,2.7019-2.8208,3.1936-4.0456,3.764s-1.9344,1.2195-.9544,4.236c.9771,3.0075.3521,4.3825-1.0171,5.1306s-3.4829.8694-5.4829,1.3694-6.25,1.5-10.5,2.25-8.5,1.25-10.5.75-4.75.75-7.125,2.875-4.375,5.125-4.875,8.125-1.5,8.25-2.125,13.5-1.375,6-.375,9c.7508,2.2524.9379,2.25,2.6774,2.9554.2852.1157.6122.2503.9902.4171.3872.1708.828.3753,1.3324.6275.222.0888.4411.1747.657.2576"/><path class="cls-4" d="M61.5,197.5357s6.25-5.7495,8.125-10.4995,3.375-11.5,1.875-19.5c0,0-.25-1.25-1.125-2.75s-2.7841-4.5535-4.875-6.25c-2.7998-2.2718-6.6913-5.9474-13-11-6.0025-4.8074-11-10-11-10,0,0-5.25-5.5-11-11.125"/><path class="cls-6" d="M144.5,188.5362c0,3,2,7,2,7,0,0,3,0,1,3s-15,9-19,10-18,1-19,0-14-3-18-2-19-1-19-1l-8-1s-3.5172-.1198-2-7l-.8689.0092-.6311.4908-4.5,3.5s-2,2-3.875,4.375-3.625,5.125-3.125,6.625-.5,5.75-2,9.75-3.5,7.75-5,8.25-3.125,4.375-4.375,8.125-2.125,7.375-2.125,7.375l77.5-.5,77.5-.5-.375-.375-2.625-2.625c-1.5-1.5-2-3.75-2.125-6.25s.125-5.25.125-7.75-1.75-8.5-4-14.375-5-11.625-7-13.625-7.5-4.25-12.5-6-9.5-3-9.5-3c0,0-3.1961-.4566-7.843-2.2424l-.657-.2576Z"/></g><g id="hair2"><path class="cls-3" d="M29.5,125.5362c4,5,8,14,8,14,5-8,3-19,3-19,1,9,18,18,18,18-12-8-10-24-10-24,1,13,16,16,16,16-14-10-8-26-8-26,0,11,10,12,10,12-6-6-5-16-5-16,0,5,5,5,5,5-3-4-1-8-1-8,0,4,6,1,6,1-1-4,2-7,2-7-1,4,1.6791,5.3182,1.6791,5.3182,0,0,3.3209-1.3182,2.3209-2.3182s2-4,2-4c-1,2,3,3,3,3-1-1,1-3,1-3,1,2,4,3,4,3-2-2,1-8,1-8-1,4,5,8,5,8-1-4,2-7,2-7-2,5,6,13,6,13-2-5,1-14,1-14-1,5,3,13,3,13-2-5,3-21,3-21-2,5,3,16,3,16-3-8,6-29,6-29,0,0-2,9,0,10,0,0,4-29,9-36,0,0-121.0505-21.1245-118,54,.1771,4.3625,4.6941,14.0275,7,16s14,17,14,17Z"/></g><g id="Layer_3"><path class="cls-7" d="M145,76.0362c-6,4,17.5-14.5,19.5-14.5s-1,4-1,4c0,0-12.5,6.5-18.5,10.5Z"/><path class="cls-4" d="M147.5,83.5362s1.6066-.1421,3-2c3-4,9-11,14-9"/><path class="cls-4" d="M157.5,82.5362c-7,1-5.3566-2.1066-7-1"/><path class="cls-2" d="M176.5,104.5362s.7575-3.3453,8-4"/><path class="cls-4" d="M90.5,98.5362s-12-8-18,1-3,14-3,14c0,0,6,18,14,20s15,2,15,2c0,0,5,1,8-4"/><path class="cls-4" d="M88.5,110.5362s-2-1-1-3,3-6-2-6-11,5-11,5c0,0-2,6,2,9,0,0,4,8,9,9s7-2,7-2c0,0,1-1,4-1s3-3,3-3c0,0,0-2-2-2s-3-2-3-3-2-3-3-1-4,5-4,8-7-1-7-5,4-7,4-7"/><path class="cls-2" d="M158.8691,74.1149s1.6309,3.4212.6309,6.4212c-1.1406,3.4218-3.2617-3.8424-.6309-6.4212Z"/></g><g id="hair1"><path class="cls-5" d="M8.2511,45.4076c-1.1908,2.346-2.7511,5.1288-3.7511,11.1286-3,13-1.9988,22.2478-.4991,29.4359,1.4997,7.1881,4.4991,11.5641,4.4991,11.5641,0,0,1.2529,2.1299,3.0491,4.9262l4.9509,17.0738c5-12,1-37,1-37,2,7,12,31,12,31-3-7-3-38-3-38,4,5,13,36,13,36,4-4-2-42-2-42,4,4,12,27,12,27,4-4-1-30-1-30,6,8,13,27,13,27,5-8-7-46-7-46,17,15,13,44,13,44,5-2,10-44,10-44,2,9,0,40,0,40,0,0,9-10,11-18,1.029-4.116,5-26,5-26,0,0,4,8,5,14s-3,18-3,18c0,0-3,3,0,2s9-8,9-8c2-2,4-8,6-12s3-14,3-14c1,1,2,10,2,12s-5,11-5,11c0,0,6-6,8-10s1-16,1-16c0,0,2,7,3,12s-2,14-2,14c4-3,5-11,7-16s2-14,2-14c0,0,2,4,2,10s-3,15-3,15c0,0,7-10,9-14s2-13,2-13c0,0,1,4.901,1,10,0,6-8,15-8,15,0,0,2-1,6-4s9-17,9-17c2,6,0,14,0,14,0,0,2.7656-1.1484,6-6,2-3,1-17,1-12s10,11,10,11c0,0-2-2-3.5-5.5l-.5-2.5c.0996-.3633,0-6.5-5.5-13.5s-11.5-11.25-17.25-14.25-11.25-4.75-15.75-6.75c-1.125-.5-2.4835-1.1801-4.1115-1.2494C88.5.5362,39.5-1.4638,8.2511,45.4076Z"/><path class="cls-1" d="M125.1559,3.4571c.2238.0514.4378.1167.6519.1997,1.1882.4608,6.6922.8793,11.6922,3.8793,0,0-13,0-21-3,0,0,6,3,11,13,0,0-13-12-21-13,0,0,4,3,3,12,0,0-9-13-14-12,0,0,8,15,7,23,0,0-15-25-21-25,0,0,10,20,5,29,0,0-5.9289-22-13-22-1,0,3,11-1,19,0,0-5-23-12-21,0,0,6,16,2,25l-8-23s-5,18-2,24c0,0-8-11-8-18,0,0-3,22,1,29,0,0-10-15-11-22,0,0-2,24,1,29,0,0-11-12-9-23,0,0-6,30-3,34,0,0-8-15-7-24,0,0-8,22-16,35,0-4,3.6962-15.0885,5-19,1-3,2.7511-9.1286,2.7511-9.1286.4331-.8532.8085-1.5825,1.168-2.2496,1.348-2.5011,2.473-4.1261,5.5809-8.1218,1.75-2.25,6.25-6.25,10.625-9.875s8.625-6.875,9.875-7.625c7.1871-4.3123,12.4371-7.0623,15.8903-8.7342s5.1097-2.2658,5.1097-2.2658c7-1.5,9.5-2.25,11.5625-2.8125s3.6875-.9375,8.9375-1.6875c4.9497-.7071,13.9497-1.4571,22.8373-1.5303,6.6657-.0549,13.2681.2709,18.0511,1.2809l7.2675,1.6703h0Z"/></g></svg>